<svg width="160" height="44" viewBox="0 0 160 44" fill="none" xmlns="http://www.w3.org/2000/svg">
<path d="M13.9 6.41613H8.7V14.8661H13.9V6.41613Z" fill="#D1DAE1"/>
<path d="M15.2 6.41613H7.4C7.04101 6.41613 6.75 6.70714 6.75 7.06613V7.71613C6.75 8.07512 7.04101 8.36613 7.4 8.36613H15.2C15.559 8.36613 15.85 8.07512 15.85 7.71613V7.06613C15.85 6.70714 15.559 6.41613 15.2 6.41613Z" fill="#D1DAE1"/>
<path d="M8.7 14.2161L0.900002 32.4161C0.900002 35.8828 3.06667 37.6161 7.4 37.6161H15.2C19.5333 37.6161 21.7 35.8828 21.7 32.4161L13.9 14.2161H8.7Z" fill="#D1DAE1"/>
<path opacity="0.7" d="M8.7 18.1161L2.85 31.7661C2.85 34.3661 4.36667 35.6661 7.4 35.6661H15.2C18.2333 35.6661 19.75 34.3661 19.75 31.7661L13.9 18.1161H8.7Z" fill="#0C991B"/>
<path opacity="0.8" d="M10 30.1411C10.5385 30.1411 10.975 29.7046 10.975 29.1661C10.975 28.6277 10.5385 28.1911 10 28.1911C9.46152 28.1911 9.025 28.6277 9.025 29.1661C9.025 29.7046 9.46152 30.1411 10 30.1411Z" fill="#90FF97"/>
<path opacity="0.8" d="M13.9 26.5661C14.259 26.5661 14.55 26.2751 14.55 25.9161C14.55 25.5571 14.259 25.2661 13.9 25.2661C13.541 25.2661 13.25 25.5571 13.25 25.9161C13.25 26.2751 13.541 26.5661 13.9 26.5661Z" fill="#90FF97"/>
<path opacity="0.8" d="M11.95 33.0661C12.309 33.0661 12.6 32.7751 12.6 32.4161C12.6 32.0571 12.309 31.7661 11.95 31.7661C11.591 31.7661 11.3 32.0571 11.3 32.4161C11.3 32.7751 11.591 33.0661 11.95 33.0661Z" fill="#90FF97"/>
<path d="M39.2862 10.1161L44.5782 33.5161H42.0582L40.8342 28.1161H33.9582L32.7342 33.5161H30.2142L35.5062 10.1161H39.2862ZM34.4262 25.9561H40.3302L37.3782 12.9241L34.4262 25.9561ZM49.6008 10.1161H52.1208V31.3561H58.7088V33.5161H49.6008V10.1161ZM71.8504 27.0361H74.3704V29.0161C74.3704 30.5761 73.8904 31.8121 72.9304 32.7241C71.9704 33.6121 70.4824 34.0561 68.4664 34.0561C66.4504 34.0561 64.9504 33.6121 63.9664 32.7241C62.9824 31.8121 62.4904 30.5761 62.4904 29.0161V14.6161C62.4904 13.0561 62.9704 11.8321 63.9304 10.9441C64.8904 10.0321 66.3784 9.57613 68.3944 9.57613C70.4104 9.57613 71.9104 10.0321 72.8944 10.9441C73.8784 11.8321 74.3704 13.0561 74.3704 14.6161V18.0361H71.8504V14.6161C71.8504 13.7041 71.5624 12.9961 70.9864 12.4921C70.4344 11.9881 69.5704 11.7361 68.3944 11.7361C67.2424 11.7361 66.3904 11.9881 65.8384 12.4921C65.2864 12.9961 65.0104 13.7041 65.0104 14.6161V29.0161C65.0104 29.9041 65.2864 30.6121 65.8384 31.1401C66.4144 31.6441 67.2904 31.8961 68.4664 31.8961C69.6184 31.8961 70.4704 31.6441 71.0224 31.1401C71.5744 30.6121 71.8504 29.9041 71.8504 29.0161V27.0361ZM80.6789 33.5161V10.1161H83.1989V20.5561H90.2909V10.1161H92.8109V33.5161H90.2909V22.7161H83.1989V33.5161H80.6789ZM108.835 27.0361H111.355V29.0161C111.355 30.5761 110.875 31.8121 109.915 32.7241C108.955 33.6121 107.467 34.0561 105.451 34.0561C103.435 34.0561 101.935 33.6121 100.951 32.7241C99.9668 31.8121 99.4748 30.5761 99.4748 29.0161V14.6161C99.4748 13.0561 99.9548 11.8321 100.915 10.9441C101.875 10.0321 103.363 9.57613 105.379 9.57613C107.395 9.57613 108.895 10.0321 109.879 10.9441C110.863 11.8321 111.355 13.0561 111.355 14.6161V22.5361H101.995V29.0161C101.995 29.9041 102.271 30.6121 102.823 31.1401C103.399 31.6441 104.275 31.8961 105.451 31.8961C106.603 31.8961 107.455 31.6441 108.007 31.1401C108.559 30.6121 108.835 29.9041 108.835 29.0161V27.0361ZM101.995 20.3761H108.835V14.6161C108.835 13.7041 108.547 12.9961 107.971 12.4921C107.419 11.9881 106.555 11.7361 105.379 11.7361C104.227 11.7361 103.375 11.9881 102.823 12.4921C102.271 12.9961 101.995 13.7041 101.995 14.6161V20.3761ZM118.015 33.5161V10.1161H119.095L119.995 12.4201C120.475 11.5801 121.123 10.8961 121.939 10.3681C122.755 9.84013 123.655 9.57613 124.639 9.57613C125.935 9.57613 126.955 9.81613 127.699 10.2961C128.443 10.7761 128.971 11.4121 129.283 12.2041C129.787 11.4361 130.423 10.8121 131.191 10.3321C131.983 9.82813 132.859 9.57613 133.819 9.57613C135.091 9.57613 136.087 9.80413 136.807 10.2601C137.551 10.6921 138.079 11.2921 138.391 12.0601C138.727 12.8041 138.895 13.6561 138.895 14.6161V33.5161H136.375V14.6161C136.375 13.8001 136.207 13.1161 135.871 12.5641C135.535 12.0121 134.839 11.7361 133.783 11.7361C133.087 11.7361 132.427 11.9401 131.803 12.3481C131.179 12.7321 130.675 13.2121 130.291 13.7881C129.907 14.3401 129.715 14.8561 129.715 15.3361V33.5161H127.195V14.6161C127.195 13.8001 127.027 13.1161 126.691 12.5641C126.355 12.0121 125.659 11.7361 124.603 11.7361C123.907 11.7361 123.247 11.9281 122.623 12.3121C121.999 12.6961 121.495 13.1641 121.111 13.7161C120.727 14.2441 120.535 14.7481 120.535 15.2281V33.5161H118.015ZM149.354 33.5161V26.8921C147.698 26.7001 146.462 26.1721 145.646 25.3081C144.854 24.4441 144.458 23.3161 144.458 21.9241V10.1161H146.978V21.9241C146.978 22.8121 147.278 23.5201 147.878 24.0481C148.478 24.5521 149.39 24.8041 150.614 24.8041C151.814 24.8041 152.702 24.5521 153.278 24.0481C153.878 23.5201 154.178 22.8121 154.178 21.9241V10.1161H156.698V21.9241C156.698 23.3161 156.302 24.4441 155.51 25.3081C154.718 26.1721 153.506 26.7001 151.874 26.8921V33.5161H149.354Z" fill="#D4AF37"/>
</svg>
