<svg width="148" height="39" viewBox="0 0 148 39" fill="none" xmlns="http://www.w3.org/2000/svg">
<path d="M18.42 29.02H19.92L26.43 10.06H30.57L37.08 29.02H38.58V31H29.79V29.02H32.19L30.75 24.61H23.91L22.47 29.02H24.87V31H18.42V29.02ZM24.51 22.54H30.21L27.39 13.72H27.27L24.51 22.54ZM39.7866 29.02H41.5866V11.59L39.7866 11.2V9.49L46.1466 8.2V29.02H47.9466V31H39.7866V29.02ZM57.5817 31.36C56.3217 31.36 55.2117 31.15 54.2517 30.73C53.3117 30.31 52.5117 29.73 51.8517 28.99C51.2117 28.25 50.7217 27.38 50.3817 26.38C50.0617 25.38 49.9017 24.29 49.9017 23.11C49.9017 21.79 50.1117 20.63 50.5317 19.63C50.9517 18.61 51.5217 17.75 52.2417 17.05C52.9817 16.35 53.8417 15.82 54.8217 15.46C55.8217 15.1 56.8917 14.92 58.0317 14.92C59.8717 14.92 61.2817 15.3 62.2617 16.06C63.2617 16.82 63.7617 17.78 63.7617 18.94C63.7617 19.7 63.5517 20.31 63.1317 20.77C62.7117 21.21 62.1317 21.43 61.3917 21.43C60.6517 21.43 60.0817 21.24 59.6817 20.86C59.2817 20.46 59.0817 19.94 59.0817 19.3C59.0817 18.78 59.2117 18.35 59.4717 18.01C59.7517 17.67 60.0617 17.42 60.4017 17.26V17.08C60.2017 17.02 59.9617 16.96 59.6817 16.9C59.4217 16.84 59.0617 16.81 58.6017 16.81C57.3817 16.81 56.4317 17.2 55.7517 17.98C55.0717 18.74 54.7317 19.84 54.7317 21.28V24.4C54.7317 25.72 55.0417 26.73 55.6617 27.43C56.2817 28.11 57.1417 28.45 58.2417 28.45C59.3617 28.45 60.2517 28.19 60.9117 27.67C61.5717 27.15 62.0417 26.54 62.3217 25.84L64.0017 26.83C63.8217 27.33 63.5617 27.85 63.2217 28.39C62.9017 28.93 62.4817 29.42 61.9617 29.86C61.4417 30.3 60.8217 30.66 60.1017 30.94C59.3817 31.22 58.5417 31.36 57.5817 31.36ZM65.6264 29.02H67.4264V11.59L65.6264 11.2V9.49L71.9864 8.2V17.77H72.1964C72.4764 16.97 72.9664 16.3 73.6664 15.76C74.3864 15.2 75.3364 14.92 76.5164 14.92C78.4364 14.92 79.7864 15.41 80.5664 16.39C81.3664 17.35 81.7664 18.8 81.7664 20.74V29.02H83.5664V31H75.5564V29.02H77.2064V20.89C77.2064 19.83 77.0164 19.08 76.6364 18.64C76.2764 18.18 75.6564 17.95 74.7764 17.95C74.4364 17.95 74.0964 18 73.7564 18.1C73.4364 18.18 73.1364 18.32 72.8564 18.52C72.5964 18.7 72.3864 18.94 72.2264 19.24C72.0664 19.52 71.9864 19.87 71.9864 20.29V29.02H73.6364V31H65.6264V29.02ZM93.1774 31.36C91.9374 31.36 90.8374 31.16 89.8774 30.76C88.9374 30.34 88.1374 29.77 87.4774 29.05C86.8374 28.31 86.3474 27.44 86.0074 26.44C85.6674 25.42 85.4974 24.31 85.4974 23.11C85.4974 21.85 85.6674 20.71 86.0074 19.69C86.3674 18.67 86.8674 17.81 87.5074 17.11C88.1674 16.41 88.9474 15.87 89.8474 15.49C90.7674 15.11 91.7874 14.92 92.9074 14.92C94.0274 14.92 95.0374 15.09 95.9374 15.43C96.8374 15.77 97.5974 16.26 98.2174 16.9C98.8574 17.52 99.3474 18.28 99.6874 19.18C100.027 20.08 100.197 21.08 100.197 22.18V23.2H90.3274V24.4C90.3274 25.74 90.6774 26.75 91.3774 27.43C92.0774 28.11 93.0074 28.45 94.1674 28.45C95.2474 28.45 96.1174 28.21 96.7774 27.73C97.4374 27.23 97.9074 26.63 98.1874 25.93L99.8374 26.92C99.6574 27.42 99.3974 27.93 99.0574 28.45C98.7174 28.97 98.2774 29.45 97.7374 29.89C97.1974 30.31 96.5474 30.66 95.7874 30.94C95.0274 31.22 94.1574 31.36 93.1774 31.36ZM90.3274 21.31H95.4874V20.89C95.4874 19.45 95.2574 18.44 94.7974 17.86C94.3374 17.28 93.7074 16.99 92.9074 16.99C92.1074 16.99 91.4774 17.28 91.0174 17.86C90.5574 18.44 90.3274 19.45 90.3274 20.89V21.31ZM102.46 29.02H104.26V18.31L102.46 17.92V16.21L108.73 14.92V17.89H108.88C109.16 17.09 109.64 16.4 110.32 15.82C111.02 15.22 111.99 14.92 113.23 14.92C114.59 14.92 115.65 15.17 116.41 15.67C117.19 16.17 117.72 16.91 118 17.89H118.12C118.44 17.11 118.98 16.42 119.74 15.82C120.5 15.22 121.51 14.92 122.77 14.92C124.65 14.92 125.97 15.4 126.73 16.36C127.51 17.32 127.9 18.77 127.9 20.71V29.02H129.7V31H121.78V29.02H123.34V20.89C123.34 19.83 123.16 19.08 122.8 18.64C122.46 18.18 121.87 17.95 121.03 17.95C120.69 17.95 120.36 18 120.04 18.1C119.72 18.18 119.43 18.32 119.17 18.52C118.93 18.7 118.73 18.94 118.57 19.24C118.43 19.54 118.36 19.89 118.36 20.29V29.02H119.92V31H112.24V29.02H113.8V20.89C113.8 19.83 113.62 19.08 113.26 18.64C112.92 18.18 112.34 17.95 111.52 17.95C110.82 17.95 110.19 18.14 109.63 18.52C109.09 18.88 108.82 19.47 108.82 20.29V29.02H110.38V31H102.46V29.02ZM133.84 37.36C132.64 37.36 131.71 37.06 131.05 36.46C130.39 35.88 130.06 35.18 130.06 34.36C130.06 33.64 130.26 33.08 130.66 32.68C131.08 32.28 131.65 32.08 132.37 32.08C133.07 32.08 133.61 32.3 133.99 32.74C134.37 33.18 134.56 33.69 134.56 34.27C134.56 34.53 134.52 34.77 134.44 34.99C134.36 35.23 134.27 35.42 134.17 35.56L134.23 35.74C134.31 35.76 134.42 35.77 134.56 35.77C135.08 35.77 135.56 35.49 136 34.93C136.44 34.37 136.86 33.57 137.26 32.53L137.56 31.75L131.86 17.26H130.42V15.28H138.31V17.26H136.63L139.78 26.35H139.96L143.14 17.26H141.46V15.28H146.98V17.26H145.57L139.27 32.62C139.05 33.16 138.79 33.71 138.49 34.27C138.19 34.85 137.83 35.36 137.41 35.8C136.99 36.26 136.49 36.63 135.91 36.91C135.33 37.21 134.64 37.36 133.84 37.36Z" fill="#6B46C1"/>
<path d="M7.15122 9.00037C7.25087 9.00069 7.35051 9.00038 7.45016 9C8.07819 8.99954 8.69776 9.04074 9.3166 9.14835C9.33904 9.15216 9.36148 9.15597 9.3846 9.1599C10.5436 9.35719 10.5436 9.35719 10.7785 9.62598C10.9464 9.86757 10.8601 10.1983 10.8145 10.4729C10.8094 10.5052 10.8042 10.5375 10.7989 10.5708C10.7881 10.6384 10.7771 10.706 10.766 10.7735C10.749 10.8772 10.7324 10.9808 10.7158 11.0845C10.7052 11.1505 10.6946 11.2164 10.684 11.2823C10.6765 11.3288 10.6765 11.3288 10.6688 11.3762C10.6641 11.4048 10.6594 11.4335 10.6545 11.463C10.6484 11.5008 10.6484 11.5008 10.6421 11.5393C10.6296 11.6039 10.6296 11.6039 10.6002 11.6914C10.6333 11.6952 10.6333 11.6952 10.6671 11.6991C10.9517 11.7378 11.2054 11.809 11.3873 12.0425C11.5561 12.3062 11.6193 12.5826 11.551 12.8904C11.4606 13.1837 11.2984 13.413 11.0415 13.5873C10.8172 13.6993 10.5878 13.7915 10.3354 13.7915C10.3354 14.292 10.3354 14.7926 10.3354 15.3083C10.4664 15.3516 10.4664 15.3516 10.6002 15.3958C11.2445 15.6635 11.8174 16.0546 12.3262 16.528C12.3863 16.5836 12.4477 16.6361 12.5108 16.6883C13.8318 17.8355 14.5366 19.6217 14.6543 21.3239C14.76 23.1858 14.189 25.0316 12.954 26.4504C12.9377 26.4693 12.9214 26.4881 12.9046 26.5075C12.5907 26.8677 12.2495 27.1864 11.8653 27.4713C11.823 27.5053 11.7807 27.5393 11.7385 27.5734C10.5157 28.5117 8.94612 29.0092 7.40687 28.9994C7.31955 28.999 7.23227 28.9994 7.14495 29C5.60223 29.0017 4.00421 28.4597 2.81628 27.4724C2.76853 27.433 2.72036 27.394 2.67177 27.3556C2.46823 27.1943 2.28065 27.0219 2.097 26.8387C2.08289 26.8247 2.06878 26.8106 2.05423 26.7961C1.83433 26.5766 1.62812 26.3546 1.4497 26.1004C1.43556 26.0804 1.42141 26.0605 1.40683 26.0399C1.19604 25.74 1.00254 25.4326 0.831825 25.1087C0.820233 25.087 0.808642 25.0653 0.796699 25.0429C0.442037 24.3702 0.212222 23.6412 0.0962572 22.8919C0.0915257 22.8617 0.0867943 22.8315 0.0819194 22.8004C-0.179769 21.061 0.179723 19.2168 1.24374 17.7875C1.42905 17.5463 1.62623 17.3149 1.83335 17.0918C1.88615 17.0345 1.93641 16.9757 1.98667 16.9161C2.23753 16.632 2.53617 16.3917 2.83896 16.1645C2.89091 16.1253 2.94236 16.0856 2.99382 16.0459C3.38173 15.7507 3.8084 15.5246 4.24486 15.3083C4.25457 14.8077 4.26428 14.3072 4.27428 13.7915C4.20632 13.7819 4.13835 13.7723 4.06832 13.7624C3.75256 13.6883 3.46741 13.5478 3.28862 13.2701C3.14586 13.0022 3.07057 12.7225 3.14921 12.4227C3.25233 12.1245 3.40919 11.9093 3.69686 11.768C3.79069 11.7238 3.86779 11.7184 3.97013 11.7194C3.99402 11.7196 4.0179 11.7197 4.04251 11.7199C4.06074 11.7201 4.07897 11.7204 4.09775 11.7206C4.08751 11.6653 4.08751 11.6653 4.07707 11.6088C4.05147 11.4702 4.02593 11.3317 4.00041 11.1931C3.98942 11.1334 3.9784 11.0738 3.96737 11.0141C3.75284 9.85407 3.75284 9.85407 3.89179 9.64967C4.22422 9.25197 5.03017 9.19369 5.51188 9.11918C5.54101 9.11467 5.57015 9.11015 5.60017 9.1055C5.6975 9.09123 5.79491 9.07848 5.89253 9.06632C5.91289 9.06373 5.93324 9.06115 5.95421 9.05848C6.35342 9.00914 6.74919 8.99889 7.15122 9.00037Z" fill="#D1DAE1"/>
<path d="M7.46887 20.2819C7.84769 20.3691 8.22665 20.4519 8.60955 20.5196C8.63583 20.5244 8.66211 20.5293 8.68918 20.5343C9.18793 20.6184 9.6193 20.5308 10.1055 20.4186C10.2294 20.3904 10.3533 20.3625 10.4773 20.3349C10.5077 20.3281 10.538 20.3213 10.5693 20.3143C11.0132 20.2166 11.4712 20.1223 11.927 20.1138C11.9566 20.1132 11.9861 20.1127 12.0165 20.1121C12.1219 20.1103 12.2272 20.1093 12.3326 20.1085C12.3837 20.1079 12.3837 20.1079 12.4358 20.1074C12.8527 20.107 12.8527 20.107 13.0085 20.1705C13.4123 20.6325 13.3285 21.5387 13.3216 22.0982C13.3215 22.1349 13.3213 22.1716 13.3212 22.2093C13.2708 23.6231 12.479 24.9519 11.5001 25.9254C11.4775 25.9488 11.455 25.9723 11.4317 25.9965C10.9642 26.4772 10.4002 26.8353 9.79246 27.116C9.7744 27.1246 9.75635 27.1332 9.73775 27.142C8.44115 27.7561 6.83306 27.8341 5.47886 27.3605C5.38874 27.3277 5.29938 27.2932 5.21026 27.2578C5.19037 27.2499 5.17048 27.2421 5.14999 27.2341C4.13144 26.8283 3.2012 26.107 2.5634 25.2166C2.5515 25.2001 2.53961 25.1835 2.52735 25.1664C1.96957 24.3806 1.59341 23.4779 1.43516 22.5275C1.42611 22.4736 1.41594 22.4198 1.40562 22.3661C1.29312 21.7007 1.27687 20.7662 1.61785 20.1592C1.88143 19.8153 2.58821 19.7542 2.98964 19.7002C4.50122 19.5479 6.00984 19.9458 7.46887 20.2819Z" fill="#458025"/>
<path d="M7.15122 9.00037C7.25087 9.00069 7.35051 9.00038 7.45015 9C8.07819 8.99954 8.69776 9.04074 9.3166 9.14835C9.33904 9.15216 9.36148 9.15597 9.3846 9.1599C10.5436 9.35719 10.5436 9.35719 10.7785 9.62598C10.9464 9.86757 10.8601 10.1983 10.8145 10.4729C10.8094 10.5052 10.8042 10.5375 10.7989 10.5708C10.7881 10.6384 10.7771 10.706 10.766 10.7735C10.749 10.8772 10.7324 10.9808 10.7158 11.0845C10.7052 11.1505 10.6946 11.2164 10.684 11.2823C10.6765 11.3288 10.6765 11.3288 10.6688 11.3762C10.6641 11.4048 10.6594 11.4335 10.6545 11.463C10.6484 11.5008 10.6484 11.5008 10.6421 11.5393C10.6296 11.6039 10.6296 11.6039 10.6002 11.6914C10.6333 11.6952 10.6333 11.6952 10.6671 11.6991C10.9517 11.7378 11.2054 11.809 11.3873 12.0425C11.5561 12.3062 11.6193 12.5826 11.551 12.8904C11.4606 13.1837 11.2984 13.413 11.0415 13.5873C10.8172 13.6993 10.5878 13.7915 10.3354 13.7915C10.3354 14.292 10.3354 14.7926 10.3354 15.3083C10.4664 15.3516 10.4664 15.3516 10.6002 15.3958C11.2445 15.6635 11.8174 16.0546 12.3262 16.528C12.3863 16.5836 12.4477 16.6361 12.5108 16.6883C13.8318 17.8355 14.5366 19.6217 14.6543 21.3239C14.76 23.1858 14.189 25.0316 12.954 26.4504C12.9377 26.4693 12.9214 26.4881 12.9046 26.5075C12.5907 26.8677 12.2495 27.1864 11.8653 27.4713C11.823 27.5053 11.7807 27.5393 11.7385 27.5734C10.5157 28.5117 8.94612 29.0092 7.40687 28.9994C7.31955 28.999 7.23227 28.9994 7.14495 29C5.60223 29.0017 4.00421 28.4597 2.81628 27.4724C2.76853 27.433 2.72036 27.394 2.67177 27.3556C2.46823 27.1943 2.28065 27.0219 2.097 26.8387C2.08289 26.8247 2.06878 26.8106 2.05423 26.7961C1.83433 26.5766 1.62812 26.3546 1.4497 26.1004C1.43556 26.0804 1.42141 26.0605 1.40683 26.0399C1.19604 25.74 1.00254 25.4326 0.831825 25.1087C0.820233 25.087 0.808642 25.0653 0.796699 25.0429C0.442037 24.3702 0.212222 23.6412 0.0962572 22.8919C0.0915257 22.8617 0.0867943 22.8315 0.0819194 22.8004C-0.179769 21.061 0.179723 19.2168 1.24374 17.7875C1.42905 17.5463 1.62623 17.3149 1.83335 17.0918C1.88615 17.0345 1.93641 16.9757 1.98667 16.9161C2.23753 16.632 2.53617 16.3917 2.83896 16.1645C2.89091 16.1253 2.94236 16.0856 2.99382 16.0459C3.38173 15.7507 3.8084 15.5246 4.24486 15.3083C4.25457 14.8077 4.26428 14.3072 4.27428 13.7915C4.20632 13.7819 4.13835 13.7723 4.06832 13.7624C3.75256 13.6883 3.46741 13.5478 3.28862 13.2701C3.14586 13.0022 3.07057 12.7225 3.14921 12.4227C3.25233 12.1245 3.40919 11.9093 3.69686 11.768C3.79069 11.7238 3.86779 11.7184 3.97013 11.7194C3.99401 11.7196 4.0179 11.7197 4.04251 11.7199C4.06074 11.7201 4.07897 11.7204 4.09775 11.7206C4.08751 11.6653 4.08751 11.6653 4.07707 11.6088C4.05147 11.4702 4.02593 11.3317 4.00041 11.1931C3.98942 11.1334 3.9784 11.0738 3.96737 11.0141C3.75284 9.85407 3.75284 9.85407 3.89179 9.64967C4.22422 9.25197 5.03017 9.19369 5.51188 9.11918C5.54101 9.11467 5.57015 9.11015 5.60017 9.1055C5.6975 9.09123 5.79491 9.07848 5.89253 9.06632C5.91289 9.06373 5.93324 9.06115 5.95421 9.05848C6.35342 9.00914 6.74919 8.99889 7.15122 9.00037ZM4.83331 13.9374C4.83314 13.9579 4.83297 13.9784 4.83279 13.9995C4.83109 14.193 4.82896 14.3866 4.82638 14.5801C4.82506 14.6796 4.82391 14.7791 4.82312 14.8786C4.82221 14.9931 4.8206 15.1075 4.81895 15.222C4.81876 15.2576 4.81857 15.2932 4.81838 15.3299C4.8175 15.3798 4.8175 15.3798 4.81661 15.4308C4.81612 15.4746 4.81612 15.4746 4.81562 15.5193C4.80193 15.6135 4.77141 15.669 4.71562 15.7458C4.65999 15.7791 4.65999 15.7791 4.5969 15.8008C4.57335 15.8094 4.5498 15.8179 4.52554 15.8267C4.50028 15.8355 4.47501 15.8443 4.44898 15.8533C3.71158 16.1283 3.08256 16.5858 2.53834 17.1458C2.39123 17.2917 2.39123 17.2917 2.34146 17.3379C2.14995 17.5197 1.9916 17.7242 1.8322 17.9334C1.81364 17.9574 1.81364 17.9574 1.79472 17.9819C1.43682 18.4474 1.15638 18.9609 0.949516 19.5084C0.935933 19.5438 0.935933 19.5438 0.922076 19.5799C0.702793 20.1595 0.564593 20.7848 0.561044 21.4055C0.560835 21.4299 0.560626 21.4542 0.560411 21.4793C0.549348 23.1484 1.01012 24.6649 2.06758 25.9837C2.08712 26.0082 2.08712 26.0082 2.10706 26.0332C2.44699 26.4555 2.83498 26.8307 3.27391 27.1505C3.30748 27.1755 3.34104 27.2006 3.37459 27.2256C3.62279 27.4086 3.88358 27.5611 4.15659 27.7046C4.1905 27.7227 4.22441 27.7407 4.25934 27.7592C4.76019 28.0166 5.28705 28.1832 5.83369 28.3172C5.85978 28.3238 5.88587 28.3305 5.91275 28.3374C6.35348 28.4458 6.79825 28.4452 7.24965 28.4466C7.2944 28.4469 7.2944 28.4469 7.34005 28.4472C7.8925 28.4493 8.43394 28.4001 8.97088 28.2661C9.01669 28.2549 9.01669 28.2549 9.06343 28.2434C9.77083 28.0648 10.4327 27.7834 11.0415 27.3838C11.0628 27.3698 11.0841 27.3559 11.106 27.3415C11.6772 26.9628 12.2193 26.5038 12.6303 25.9546C12.6563 25.9206 12.6822 25.8867 12.7081 25.8527C13.7934 24.421 14.3072 22.6204 14.0546 20.8376C13.8338 19.4558 13.2034 18.1968 12.2292 17.1875C12.1933 17.1503 12.1578 17.1127 12.1223 17.0751C11.9361 16.8826 11.7263 16.723 11.5123 16.5625C11.4849 16.5417 11.4576 16.5209 11.4294 16.4995C11.0333 16.2051 10.3806 15.7458 9.8646 15.7458C9.77967 15.5324 9.7626 15.3477 9.76127 15.1195C9.76048 15.0686 9.76048 15.0686 9.75967 15.0166C9.75809 14.909 9.75709 14.8015 9.7561 14.6939C9.75513 14.6206 9.75411 14.5473 9.75306 14.4741C9.75057 14.2952 9.74855 14.1163 9.74691 13.9374C9.61294 13.9534 9.47897 13.9695 9.345 13.9856C9.29952 13.9911 9.25403 13.9965 9.20855 14.002C9.14281 14.0099 9.07708 14.0178 9.01134 14.0257C8.9813 14.0293 8.9813 14.0293 8.95066 14.0329C8.83211 14.0472 8.83211 14.0472 8.71362 14.062C7.87343 14.1688 6.99271 14.1358 6.14998 14.0741C6.12614 14.0724 6.10229 14.0707 6.07773 14.0689C5.66138 14.0382 5.2475 13.9889 4.83331 13.9374Z" fill="#505242"/>
<path d="M7.46887 20.2819C7.84769 20.3691 8.22665 20.4519 8.60955 20.5196C8.63583 20.5244 8.66211 20.5293 8.68918 20.5343C9.18793 20.6184 9.6193 20.5308 10.1055 20.4186C10.2294 20.3904 10.3533 20.3625 10.4773 20.3349C10.5077 20.3281 10.538 20.3213 10.5693 20.3143C11.0132 20.2166 11.4712 20.1223 11.927 20.1138C11.9566 20.1132 11.9861 20.1127 12.0165 20.1121C12.1219 20.1103 12.2272 20.1093 12.3326 20.1085C12.3837 20.1079 12.3837 20.1079 12.4358 20.1074C12.8527 20.107 12.8527 20.107 13.0085 20.1705C13.4123 20.6325 13.3285 21.5387 13.3216 22.0982C13.3215 22.1349 13.3213 22.1716 13.3212 22.2093C13.2708 23.6231 12.479 24.9519 11.5001 25.9254C11.4775 25.9488 11.455 25.9723 11.4317 25.9965C10.9642 26.4772 10.4002 26.8353 9.79246 27.116C9.7744 27.1246 9.75635 27.1332 9.73775 27.142C8.44115 27.7561 6.83306 27.8341 5.47886 27.3605C5.38874 27.3277 5.29938 27.2932 5.21026 27.2578C5.19037 27.2499 5.17048 27.2421 5.14999 27.2341C4.13144 26.8283 3.2012 26.107 2.5634 25.2166C2.5515 25.2001 2.53961 25.1835 2.52735 25.1664C1.96957 24.3806 1.59341 23.4779 1.43516 22.5275C1.42611 22.4736 1.41594 22.4198 1.40562 22.3661C1.29312 21.7007 1.27687 20.7662 1.61785 20.1592C1.88143 19.8153 2.58821 19.7542 2.98964 19.7002C4.50122 19.5479 6.00984 19.9458 7.46887 20.2819ZM10.1824 20.8953C10.0192 20.9366 9.85541 20.9741 9.69107 21.0104C9.51413 21.0496 9.33821 21.0914 9.16268 21.1365C8.39647 21.3327 7.61913 21.4997 6.83253 21.588C6.79604 21.5922 6.75955 21.5964 6.72195 21.6007C5.21998 21.7697 3.6553 21.7179 2.2048 21.2651C2.09711 21.2315 1.99209 21.2069 1.88034 21.1911C1.73394 21.8965 1.91578 22.6749 2.13649 23.3456C2.14286 23.3653 2.14923 23.3849 2.15579 23.4052C2.4112 24.1777 2.85596 24.8843 3.41722 25.4718C3.43175 25.487 3.44628 25.5023 3.46125 25.518C3.68698 25.7533 3.91925 25.9638 4.18567 26.1522C4.20137 26.1635 4.21707 26.1749 4.23325 26.1866C5.325 26.9739 6.7805 27.307 8.11271 27.107C8.15087 27.1007 8.189 27.0943 8.22711 27.0877C8.25851 27.0824 8.25851 27.0824 8.29055 27.0771C9.43541 26.8792 10.4283 26.2805 11.244 25.4718C11.2587 25.4572 11.2735 25.4426 11.2888 25.4275C11.7812 24.9342 12.1604 24.2983 12.4178 23.6544C12.4394 23.6006 12.4618 23.5473 12.4842 23.4939C12.5725 23.2782 12.6359 23.0605 12.6884 22.8335C12.6968 22.7969 12.6968 22.7969 12.7055 22.7596C12.7843 22.3997 12.8194 22.0451 12.8183 21.6777C12.8182 21.6163 12.8189 21.555 12.8196 21.4936C12.8209 21.1992 12.8167 20.8579 12.667 20.5957C11.8068 20.5739 11.0152 20.6843 10.1824 20.8953Z" fill="#2C531C"/>
<path d="M6.80814 9.00036C6.91132 9.00066 7.01449 9.00036 7.11767 9C7.76799 8.99956 8.40954 9.0391 9.05032 9.14236C9.07356 9.14601 9.09679 9.14967 9.12073 9.15344C10.3208 9.34276 10.3208 9.34276 10.5641 9.60069C10.7378 9.83232 10.6487 10.1491 10.6014 10.4124C10.596 10.4433 10.5907 10.4743 10.5852 10.5062C10.5683 10.6038 10.551 10.7014 10.5337 10.799C10.5221 10.8653 10.5107 10.9316 10.4992 10.9979C10.4782 11.1187 10.4572 11.2395 10.4357 11.3603C10.4315 11.3844 10.4272 11.4085 10.4228 11.4333C10.411 11.493 10.3954 11.5519 10.3794 11.6107C10.1884 11.6107 9.99737 11.6107 9.80056 11.6107C9.79051 11.6292 9.78045 11.6476 9.77009 11.6667C9.78749 11.4108 9.82791 11.1615 9.87673 10.9092C9.88368 10.8723 9.89062 10.8355 9.89755 10.7986C9.9485 10.5312 9.9485 10.5312 9.98336 10.4351C9.96219 10.4439 9.94102 10.4527 9.91921 10.4618C8.4204 11.0412 6.30224 10.8874 4.74314 10.6188C4.71135 10.6134 4.67957 10.608 4.64682 10.6024C4.43694 10.5643 4.24129 10.5074 4.04241 10.4351C4.04887 10.4656 4.05533 10.4961 4.06199 10.5275C4.086 10.6411 4.1098 10.7547 4.13353 10.8684C4.14381 10.9175 4.15415 10.9665 4.16456 11.0156C4.17954 11.0863 4.1943 11.1571 4.20902 11.2278C4.21369 11.2496 4.21835 11.2714 4.22316 11.2938C4.24722 11.4106 4.26074 11.5192 4.25567 11.6387C4.23557 11.6294 4.21546 11.6202 4.19474 11.6107C4.15283 11.6084 4.11081 11.6077 4.06883 11.608C4.04428 11.608 4.01974 11.6081 3.99445 11.6082C3.9688 11.6085 3.94316 11.6087 3.91673 11.6089C3.87791 11.6091 3.87791 11.6091 3.83831 11.6093C3.77432 11.6097 3.71033 11.6102 3.64635 11.6107C3.61268 11.442 3.57909 11.2732 3.54556 11.1045C3.53417 11.0473 3.52277 10.99 3.51134 10.9328C3.2892 9.81957 3.2892 9.81957 3.43308 9.62343C3.77731 9.24179 4.61184 9.18586 5.11064 9.11437C5.14081 9.11004 5.17098 9.1057 5.20207 9.10124C5.30285 9.08754 5.40371 9.07531 5.5048 9.06364C5.52587 9.06116 5.54695 9.05868 5.56866 9.05612C5.98203 9.00877 6.39184 8.99893 6.80814 9.00036Z" fill="#473E25"/>
<path d="M4.66663 11C4.77205 11.014 4.87311 11.0342 4.97603 11.0558C6.43693 11.3469 8.3576 11.3677 9.80851 11.0396C9.87225 11.0262 9.9361 11.0131 9.99996 11C9.95872 11.2352 9.90799 11.469 9.84811 11.7021C9.84111 11.7295 9.83425 11.7569 9.82753 11.7844C9.81793 11.8234 9.80772 11.8624 9.7975 11.9013C9.79172 11.9239 9.78594 11.9465 9.77999 11.9698C9.75051 12.0385 9.71238 12.0779 9.6444 12.1299C9.45022 12.1999 9.2152 12.2221 9.00338 12.2513C8.98114 12.2545 8.95889 12.2576 8.93598 12.2609C8.43552 12.3258 7.9292 12.335 7.42218 12.3331C7.39293 12.3331 7.36367 12.333 7.33353 12.333C6.89856 12.332 6.46643 12.3268 6.03415 12.2885C6.01062 12.2865 5.98709 12.2845 5.96285 12.2824C5.72371 12.261 5.4904 12.2285 5.25808 12.182C5.22952 12.1765 5.22952 12.1765 5.20038 12.1709C5.06965 12.1426 4.99812 12.1074 4.91278 12.0308C4.88214 11.9704 4.86733 11.9093 4.85252 11.846C4.84793 11.8281 4.84333 11.8102 4.83859 11.7918C4.82407 11.7348 4.81031 11.6778 4.79654 11.6207C4.7869 11.5827 4.77721 11.5447 4.76748 11.5068C4.72489 11.338 4.68718 11.171 4.66663 11Z" fill="#D49A49"/>
<path d="M3.86895 11.6856C3.92228 11.7511 3.92228 11.7511 3.9751 11.8357C4.34627 12.4194 5.1785 12.4545 5.72567 12.5284C6.07596 12.5723 6.42488 12.589 6.77674 12.5911C6.81179 12.5914 6.81179 12.5914 6.84755 12.5916C6.97178 12.5925 7.09601 12.5931 7.22024 12.5935C7.3203 12.5938 7.42035 12.5947 7.52042 12.596C9.13506 12.6704 9.13506 12.6704 10.5986 12.0113C10.6378 11.9532 10.6759 11.8937 10.7127 11.8332C10.8022 11.691 10.8022 11.691 10.8951 11.6666C11.0283 11.6775 11.0986 11.7139 11.2054 11.8179C11.331 12.0306 11.3502 12.1805 11.3221 12.4419C11.2838 12.6463 11.2016 12.7353 11.0709 12.8469C9.37503 14.0612 6.14445 13.7167 4.31759 13.1515C4.28536 13.1418 4.28536 13.1418 4.25249 13.1318C3.62357 12.9369 3.62357 12.9369 3.43233 12.612C3.36129 12.456 3.32555 12.3232 3.33481 12.1422C3.37626 11.9676 3.47507 11.8451 3.58054 11.7263C3.68605 11.6592 3.75204 11.6636 3.86895 11.6856Z" fill="#D1DAE1"/>
<path d="M6.82449 20.8905C6.86092 20.9009 6.86092 20.9009 6.89808 20.9114C7.11716 20.9738 7.3359 21.0377 7.55439 21.103C7.70259 21.1465 7.8513 21.1874 8 21.2284C7.99076 21.2507 7.98153 21.2729 7.97201 21.2959C7.89287 21.3201 7.89287 21.3201 7.78506 21.3421C7.75559 21.3482 7.75559 21.3482 7.72552 21.3544C7.65964 21.3677 7.59368 21.3804 7.5277 21.393C7.49332 21.3997 7.49332 21.3997 7.45825 21.4064C6.30182 21.6267 5.07018 21.7869 3.9077 21.548C3.8215 21.5307 3.73513 21.516 3.64858 21.5015C2.32278 21.2757 2.32278 21.2757 2.0105 20.9243C1.9965 20.8209 1.9965 20.8209 2.0105 20.7216C2.18732 20.4623 2.59045 20.4618 2.85015 20.4176C2.88079 20.4121 2.88079 20.4121 2.91205 20.4066C4.24534 20.1786 5.53278 20.5232 6.82449 20.8905Z" fill="#468225"/>
<path d="M8.23154 9.70576C8.26617 9.7078 8.26617 9.7078 8.3015 9.70988C8.73627 9.73618 9.16363 9.78787 9.58768 9.87233C9.61234 9.87697 9.637 9.8816 9.6624 9.88637C9.78861 9.91117 9.89245 9.93685 9.99996 9.9998C9.98669 10.0424 9.98669 10.0424 9.94382 10.0925C9.86356 10.1173 9.78982 10.1357 9.70698 10.1519C9.68313 10.1568 9.65928 10.1617 9.6347 10.1667C8.9511 10.3021 8.25706 10.3325 7.55636 10.3316C7.44651 10.3315 7.33667 10.3321 7.22682 10.3326C5.2527 10.3367 5.2527 10.3367 4.66663 10.023C4.67589 10 4.68515 9.97709 4.6947 9.95345C4.75739 9.93032 4.8152 9.91298 4.88066 9.89696C4.90062 9.89202 4.92057 9.88708 4.94113 9.88199C5.99884 9.6324 7.14391 9.6403 8.23154 9.70576Z" fill="#D59E49"/>
<path d="M5.5175 17.1334C5.74118 17.2866 5.90601 17.4242 5.97799 17.6907C6.00801 17.971 6.03126 18.2754 5.87857 18.524C5.66459 18.784 5.45198 18.963 5.1094 18.9996C4.78843 19.0035 4.57556 18.9784 4.3335 18.7614C4.12405 18.543 4.01918 18.3073 4 18.0048C4.01406 17.7092 4.17319 17.4588 4.37133 17.2482C4.68652 16.9708 5.15342 16.9164 5.5175 17.1334Z" fill="#2B521D"/>
<path d="M8.95145 25.0567C9.12483 25.1558 9.26096 25.3109 9.32178 25.4976C9.3472 25.7065 9.33977 25.896 9.20502 26.0666C9.03564 26.244 8.88924 26.3223 8.6395 26.3333C8.45379 26.3289 8.32057 26.2892 8.19062 26.1566C8.02376 25.9521 7.97914 25.7564 8.0083 25.4976C8.06302 25.2954 8.21987 25.1633 8.38775 25.0424C8.56426 24.9851 8.77959 24.9821 8.95145 25.0567Z" fill="#79A72F"/>
<path d="M6.24859 15.034C6.42166 15.1076 6.52597 15.2327 6.62107 15.3891C6.68381 15.5727 6.68557 15.7823 6.60308 15.9604C6.51179 16.1142 6.38139 16.2174 6.22535 16.3056C6.01991 16.3533 5.84277 16.3441 5.65713 16.2418C5.49572 16.1288 5.3806 15.9869 5.34198 15.7947C5.31829 15.5805 5.33811 15.4102 5.46989 15.2331C5.68825 15.0092 5.94258 14.9556 6.24859 15.034Z" fill="#2A501C"/>
<path d="M10.9465 21.7399C11.1109 21.8823 11.2238 22.0493 11.3022 22.3052C11.3544 22.6272 11.348 22.9323 11.2283 23.2194C11.0961 23.4266 10.9493 23.6235 10.7515 23.6658C10.5263 23.6738 10.382 23.6257 10.21 23.4099C10.0272 23.1239 9.99618 22.9024 10.0003 22.5176C10.0237 22.2281 10.1176 22.0607 10.2613 21.8675C10.4705 21.6653 10.7044 21.6028 10.9465 21.7399Z" fill="#A4C539"/>
<path d="M6.22407 24.3577C6.39861 24.4439 6.51427 24.5376 6.61631 24.702C6.69004 24.9204 6.68446 25.1031 6.58907 25.3126C6.49451 25.4796 6.40479 25.5695 6.22407 25.6488C6.00726 25.6823 5.8412 25.673 5.64117 25.5816C5.4575 25.4132 5.34463 25.2532 5.33337 25.0006C5.36063 24.7583 5.43137 24.6317 5.59214 24.4492C5.77914 24.3065 6.00009 24.3218 6.22407 24.3577Z" fill="#A4C538"/>
<path d="M4.36091 22.3921C4.52817 22.5253 4.63189 22.6395 4.6645 22.851C4.67523 23.1111 4.65266 23.2788 4.46383 23.4793C4.28072 23.633 4.1164 23.6695 3.87201 23.6665C3.68214 23.6415 3.55541 23.5329 3.42867 23.4028C3.30019 23.2013 3.32602 22.962 3.36595 22.7363C3.46327 22.5676 3.58186 22.4211 3.77712 22.3566C3.98665 22.3255 4.16506 22.3155 4.36091 22.3921Z" fill="#84AF31"/>
<path d="M7.1166 19.0065C7.19919 19.0523 7.25487 19.0911 7.31108 19.1702C7.34308 19.2898 7.34204 19.3912 7.2979 19.5065C7.21296 19.6153 7.12799 19.6493 6.99792 19.6667C6.86117 19.6484 6.78514 19.5885 6.6963 19.4783C6.65727 19.3704 6.65676 19.2844 6.69465 19.1755C6.81075 19.0288 6.94049 18.981 7.1166 19.0065Z" fill="#294D1C"/>
</svg>
