<svg width="158" height="39" viewBox="0 0 158 39" fill="none" xmlns="http://www.w3.org/2000/svg">
<path d="M28.42 29.02H29.92L36.43 10.06H40.57L47.08 29.02H48.58V31H39.79V29.02H42.19L40.75 24.61H33.91L32.47 29.02H34.87V31H28.42V29.02ZM34.51 22.54H40.21L37.39 13.72H37.27L34.51 22.54ZM49.7866 29.02H51.5866V11.59L49.7866 11.2V9.49L56.1466 8.2V29.02H57.9466V31H49.7866V29.02ZM67.5817 31.36C66.3217 31.36 65.2117 31.15 64.2517 30.73C63.3117 30.31 62.5117 29.73 61.8517 28.99C61.2117 28.25 60.7217 27.38 60.3817 26.38C60.0617 25.38 59.9017 24.29 59.9017 23.11C59.9017 21.79 60.1117 20.63 60.5317 19.63C60.9517 18.61 61.5217 17.75 62.2417 17.05C62.9817 16.35 63.8417 15.82 64.8217 15.46C65.8217 15.1 66.8917 14.92 68.0317 14.92C69.8717 14.92 71.2817 15.3 72.2617 16.06C73.2617 16.82 73.7617 17.78 73.7617 18.94C73.7617 19.7 73.5517 20.31 73.1317 20.77C72.7117 21.21 72.1317 21.43 71.3917 21.43C70.6517 21.43 70.0817 21.24 69.6817 20.86C69.2817 20.46 69.0817 19.94 69.0817 19.3C69.0817 18.78 69.2117 18.35 69.4717 18.01C69.7517 17.67 70.0617 17.42 70.4017 17.26V17.08C70.2017 17.02 69.9617 16.96 69.6817 16.9C69.4217 16.84 69.0617 16.81 68.6017 16.81C67.3817 16.81 66.4317 17.2 65.7517 17.98C65.0717 18.74 64.7317 19.84 64.7317 21.28V24.4C64.7317 25.72 65.0417 26.73 65.6617 27.43C66.2817 28.11 67.1417 28.45 68.2417 28.45C69.3617 28.45 70.2517 28.19 70.9117 27.67C71.5717 27.15 72.0417 26.54 72.3217 25.84L74.0017 26.83C73.8217 27.33 73.5617 27.85 73.2217 28.39C72.9017 28.93 72.4817 29.42 71.9617 29.86C71.4417 30.3 70.8217 30.66 70.1017 30.94C69.3817 31.22 68.5417 31.36 67.5817 31.36ZM75.6264 29.02H77.4264V11.59L75.6264 11.2V9.49L81.9864 8.2V17.77H82.1964C82.4764 16.97 82.9664 16.3 83.6664 15.76C84.3864 15.2 85.3364 14.92 86.5164 14.92C88.4364 14.92 89.7864 15.41 90.5664 16.39C91.3664 17.35 91.7664 18.8 91.7664 20.74V29.02H93.5664V31H85.5564V29.02H87.2064V20.89C87.2064 19.83 87.0164 19.08 86.6364 18.64C86.2764 18.18 85.6564 17.95 84.7764 17.95C84.4364 17.95 84.0964 18 83.7564 18.1C83.4364 18.18 83.1364 18.32 82.8564 18.52C82.5964 18.7 82.3864 18.94 82.2264 19.24C82.0664 19.52 81.9864 19.87 81.9864 20.29V29.02H83.6364V31H75.6264V29.02ZM103.177 31.36C101.937 31.36 100.837 31.16 99.8774 30.76C98.9374 30.34 98.1374 29.77 97.4774 29.05C96.8374 28.31 96.3474 27.44 96.0074 26.44C95.6674 25.42 95.4974 24.31 95.4974 23.11C95.4974 21.85 95.6674 20.71 96.0074 19.69C96.3674 18.67 96.8674 17.81 97.5074 17.11C98.1674 16.41 98.9474 15.87 99.8474 15.49C100.767 15.11 101.787 14.92 102.907 14.92C104.027 14.92 105.037 15.09 105.937 15.43C106.837 15.77 107.597 16.26 108.217 16.9C108.857 17.52 109.347 18.28 109.687 19.18C110.027 20.08 110.197 21.08 110.197 22.18V23.2H100.327V24.4C100.327 25.74 100.677 26.75 101.377 27.43C102.077 28.11 103.007 28.45 104.167 28.45C105.247 28.45 106.117 28.21 106.777 27.73C107.437 27.23 107.907 26.63 108.187 25.93L109.837 26.92C109.657 27.42 109.397 27.93 109.057 28.45C108.717 28.97 108.277 29.45 107.737 29.89C107.197 30.31 106.547 30.66 105.787 30.94C105.027 31.22 104.157 31.36 103.177 31.36ZM100.327 21.31H105.487V20.89C105.487 19.45 105.257 18.44 104.797 17.86C104.337 17.28 103.707 16.99 102.907 16.99C102.107 16.99 101.477 17.28 101.017 17.86C100.557 18.44 100.327 19.45 100.327 20.89V21.31ZM112.46 29.02H114.26V18.31L112.46 17.92V16.21L118.73 14.92V17.89H118.88C119.16 17.09 119.64 16.4 120.32 15.82C121.02 15.22 121.99 14.92 123.23 14.92C124.59 14.92 125.65 15.17 126.41 15.67C127.19 16.17 127.72 16.91 128 17.89H128.12C128.44 17.11 128.98 16.42 129.74 15.82C130.5 15.22 131.51 14.92 132.77 14.92C134.65 14.92 135.97 15.4 136.73 16.36C137.51 17.32 137.9 18.77 137.9 20.71V29.02H139.7V31H131.78V29.02H133.34V20.89C133.34 19.83 133.16 19.08 132.8 18.64C132.46 18.18 131.87 17.95 131.03 17.95C130.69 17.95 130.36 18 130.04 18.1C129.72 18.18 129.43 18.32 129.17 18.52C128.93 18.7 128.73 18.94 128.57 19.24C128.43 19.54 128.36 19.89 128.36 20.29V29.02H129.92V31H122.24V29.02H123.8V20.89C123.8 19.83 123.62 19.08 123.26 18.64C122.92 18.18 122.34 17.95 121.52 17.95C120.82 17.95 120.19 18.14 119.63 18.52C119.09 18.88 118.82 19.47 118.82 20.29V29.02H120.38V31H112.46V29.02ZM143.84 37.36C142.64 37.36 141.71 37.06 141.05 36.46C140.39 35.88 140.06 35.18 140.06 34.36C140.06 33.64 140.26 33.08 140.66 32.68C141.08 32.28 141.65 32.08 142.37 32.08C143.07 32.08 143.61 32.3 143.99 32.74C144.37 33.18 144.56 33.69 144.56 34.27C144.56 34.53 144.52 34.77 144.44 34.99C144.36 35.23 144.27 35.42 144.17 35.56L144.23 35.74C144.31 35.76 144.42 35.77 144.56 35.77C145.08 35.77 145.56 35.49 146 34.93C146.44 34.37 146.86 33.57 147.26 32.53L147.56 31.75L141.86 17.26H140.42V15.28H148.31V17.26H146.63L149.78 26.35H149.96L153.14 17.26H151.46V15.28H156.98V17.26H155.57L149.27 32.62C149.05 33.16 148.79 33.71 148.49 34.27C148.19 34.85 147.83 35.36 147.41 35.8C146.99 36.26 146.49 36.63 145.91 36.91C145.33 37.21 144.64 37.36 143.84 37.36Z" fill="#CED0DD"/>
<path d="M10.3693 5.00054C10.5138 5.00099 10.6582 5.00055 10.8027 5.00001C11.7134 4.99933 12.6118 5.05908 13.5091 5.21511C13.5416 5.22063 13.5741 5.22616 13.6077 5.23185C15.2882 5.51792 15.2882 5.51792 15.6289 5.90766C15.8723 6.25797 15.7471 6.73753 15.681 7.13566C15.6736 7.18252 15.6661 7.22938 15.6584 7.27766C15.6427 7.37567 15.6268 7.47365 15.6107 7.5716C15.5861 7.72187 15.562 7.87222 15.538 8.02259C15.5226 8.11817 15.5072 8.21374 15.4917 8.30931C15.4809 8.37671 15.4809 8.37671 15.4698 8.44547C15.4629 8.48701 15.4561 8.52855 15.4491 8.57134C15.4401 8.6261 15.4401 8.6261 15.431 8.68197C15.4129 8.7757 15.4129 8.7757 15.3702 8.90258C15.4183 8.90806 15.4183 8.90806 15.4672 8.91365C15.88 8.96982 16.2479 9.07309 16.5116 9.41159C16.7563 9.79399 16.848 10.1948 16.749 10.6411C16.6179 11.0664 16.3827 11.3989 16.0102 11.6517C15.685 11.8139 15.3524 11.9477 14.9863 11.9477C14.9863 12.6735 14.9863 13.3992 14.9863 14.147C15.1763 14.2098 15.1763 14.2098 15.3702 14.2739C16.3046 14.6621 17.1353 15.2292 17.873 15.9155C17.9601 15.9962 18.0492 16.0723 18.1407 16.148C20.0562 17.8115 21.078 20.4014 21.2487 22.8696C21.402 25.5694 20.574 28.2458 18.7833 30.3031C18.7597 30.3304 18.7361 30.3578 18.7117 30.3859C18.2566 30.9082 17.7617 31.3703 17.2047 31.7834C17.1434 31.8326 17.082 31.882 17.0208 31.9314C15.2478 33.292 12.9719 34.0134 10.74 33.9992C10.6133 33.9985 10.4868 33.9992 10.3602 34C8.12324 34.0024 5.8061 33.2166 4.0836 31.785C4.01437 31.7278 3.94453 31.6714 3.87407 31.6157C3.57893 31.3817 3.30694 31.1317 3.04065 30.8661C3.02019 30.8458 2.99972 30.8254 2.97864 30.8044C2.65977 30.486 2.36077 30.1641 2.10207 29.7956C2.08156 29.7666 2.06104 29.7377 2.03991 29.7078C1.73426 29.2731 1.45368 28.8273 1.20615 28.3576C1.18934 28.3261 1.17253 28.2946 1.15521 28.2622C0.640954 27.2868 0.307722 26.2297 0.139573 25.1433C0.132712 25.0995 0.125852 25.0557 0.118783 25.0106C-0.260665 22.4884 0.260598 19.8144 1.80343 17.7419C2.07212 17.3921 2.35804 17.0567 2.65835 16.7332C2.73492 16.65 2.80779 16.5647 2.88067 16.4784C3.24442 16.0664 3.67745 15.718 4.1165 15.3885C4.19182 15.3317 4.26642 15.2742 4.34104 15.2165C4.90351 14.7885 5.52218 14.4607 6.15505 14.147C6.16913 13.4212 6.18321 12.6955 6.19771 11.9477C6.09916 11.9338 6.00061 11.9198 5.89907 11.9054C5.44121 11.798 5.02774 11.5943 4.7685 11.1917C4.5615 10.8032 4.45233 10.3977 4.56635 9.96289C4.71588 9.53048 4.94332 9.21855 5.36045 9.0136C5.49651 8.94954 5.6083 8.94171 5.75669 8.94311C5.79132 8.94337 5.82596 8.94362 5.86164 8.94388C5.88807 8.94421 5.9145 8.94453 5.94173 8.94487C5.92689 8.86463 5.92689 8.86463 5.91176 8.78277C5.87463 8.58186 5.8376 8.38093 5.8006 8.18C5.78466 8.0935 5.76869 8.007 5.75269 7.9205C5.44162 6.2384 5.44162 6.2384 5.64309 5.94203C6.12512 5.36535 7.29375 5.28085 7.99222 5.17281C8.03447 5.16627 8.07672 5.15972 8.12025 5.15298C8.26138 5.13228 8.40262 5.1138 8.54417 5.09616C8.57369 5.09241 8.6032 5.08866 8.63361 5.0848C9.21245 5.01325 9.78632 4.99839 10.3693 5.00054Z" fill="#D1DAE1"/>
<path d="M10.8299 21.3587C11.3792 21.4852 11.9287 21.6053 12.4839 21.7034C12.522 21.7104 12.5601 21.7175 12.5994 21.7248C13.3226 21.8467 13.9481 21.7197 14.6531 21.5569C14.8327 21.5161 15.0124 21.4757 15.1922 21.4355C15.2362 21.4257 15.2802 21.4159 15.3256 21.4057C15.9692 21.2641 16.6334 21.1274 17.2943 21.115C17.3371 21.1142 17.3799 21.1134 17.424 21.1125C17.5768 21.11 17.7295 21.1085 17.8823 21.1073C17.9564 21.1065 17.9564 21.1065 18.0321 21.1057C18.6365 21.1052 18.6365 21.1052 18.8625 21.1973C19.4479 21.8672 19.3264 23.1812 19.3164 23.9925C19.3162 24.0456 19.316 24.0988 19.3158 24.1535C19.2427 26.2034 18.0946 28.1303 16.6752 29.5418C16.6425 29.5758 16.6098 29.6098 16.5761 29.6449C15.8982 30.3419 15.0803 30.8612 14.1991 31.2682C14.173 31.2807 14.1468 31.2931 14.1198 31.3059C12.2397 32.1964 9.90801 32.3095 7.94442 31.6228C7.81376 31.5751 7.68418 31.5252 7.55496 31.4738C7.52612 31.4624 7.49728 31.4511 7.46756 31.4394C5.99067 30.8511 4.64182 29.8052 3.71701 28.5141C3.69976 28.4901 3.68251 28.4661 3.66474 28.4414C2.85596 27.3019 2.31052 25.9929 2.08107 24.6149C2.06793 24.5367 2.0532 24.4588 2.03823 24.3809C1.8751 23.416 1.85153 22.061 2.34597 21.1809C2.72815 20.6822 3.75298 20.5935 4.33506 20.5153C6.52685 20.2945 8.71435 20.8715 10.8299 21.3587Z" fill="#458025"/>
<path d="M10.3693 5.00054C10.5138 5.00099 10.6582 5.00055 10.8027 5.00001C11.7134 4.99933 12.6118 5.05908 13.5091 5.21511C13.5416 5.22063 13.5741 5.22616 13.6077 5.23185C15.2882 5.51792 15.2882 5.51792 15.6289 5.90766C15.8723 6.25797 15.7471 6.73753 15.681 7.13566C15.6736 7.18252 15.6661 7.22938 15.6584 7.27766C15.6427 7.37567 15.6268 7.47365 15.6107 7.5716C15.5861 7.72187 15.562 7.87222 15.538 8.02259C15.5226 8.11817 15.5072 8.21374 15.4917 8.30931C15.4809 8.37671 15.4809 8.37671 15.4698 8.44547C15.4629 8.48701 15.4561 8.52855 15.4491 8.57134C15.4401 8.6261 15.4401 8.6261 15.431 8.68197C15.4129 8.7757 15.4129 8.7757 15.3702 8.90258C15.4183 8.90806 15.4183 8.90806 15.4672 8.91365C15.88 8.96982 16.2479 9.07309 16.5116 9.41159C16.7563 9.79399 16.848 10.1948 16.749 10.6411C16.6179 11.0664 16.3827 11.3989 16.0102 11.6517C15.685 11.8139 15.3524 11.9477 14.9863 11.9477C14.9863 12.6735 14.9863 13.3992 14.9863 14.147C15.1763 14.2098 15.1763 14.2098 15.3702 14.2739C16.3046 14.6621 17.1353 15.2292 17.873 15.9155C17.9601 15.9962 18.0492 16.0723 18.1407 16.148C20.0562 17.8115 21.078 20.4014 21.2487 22.8696C21.402 25.5694 20.574 28.2459 18.7833 30.3031C18.7597 30.3304 18.7361 30.3578 18.7117 30.3859C18.2566 30.9082 17.7617 31.3703 17.2047 31.7834C17.1434 31.8326 17.082 31.882 17.0208 31.9314C15.2478 33.292 12.9719 34.0134 10.74 33.9992C10.6133 33.9985 10.4868 33.9992 10.3602 34C8.12324 34.0024 5.8061 33.2166 4.0836 31.785C4.01438 31.7278 3.94453 31.6714 3.87407 31.6157C3.57893 31.3817 3.30694 31.1318 3.04065 30.8661C3.02019 30.8458 2.99972 30.8254 2.97864 30.8044C2.65977 30.486 2.36077 30.1641 2.10207 29.7956C2.08156 29.7666 2.06104 29.7377 2.03991 29.7078C1.73426 29.2731 1.45368 28.8273 1.20615 28.3576C1.18934 28.3261 1.17253 28.2946 1.15521 28.2622C0.640954 27.2868 0.307722 26.2297 0.139573 25.1433C0.132712 25.0995 0.125852 25.0557 0.118783 25.0106C-0.260665 22.4884 0.260598 19.8144 1.80343 17.7419C2.07212 17.3921 2.35804 17.0567 2.65835 16.7332C2.73492 16.65 2.80779 16.5647 2.88067 16.4784C3.24442 16.0664 3.67745 15.718 4.1165 15.3885C4.19182 15.3317 4.26643 15.2742 4.34104 15.2165C4.90351 14.7885 5.52218 14.4607 6.15505 14.147C6.16913 13.4212 6.18321 12.6955 6.19771 11.9477C6.09916 11.9338 6.00061 11.9198 5.89907 11.9054C5.44121 11.798 5.02774 11.5943 4.7685 11.1917C4.5615 10.8032 4.45233 10.3977 4.56635 9.96289C4.71588 9.53048 4.94332 9.21855 5.36045 9.0136C5.49651 8.94954 5.6083 8.94171 5.75669 8.94311C5.79132 8.94337 5.82596 8.94362 5.86164 8.94388C5.88807 8.94421 5.9145 8.94453 5.94173 8.94487C5.92689 8.86463 5.92689 8.86463 5.91176 8.78277C5.87463 8.58186 5.8376 8.38094 5.8006 8.18C5.78466 8.0935 5.76869 8.007 5.75269 7.9205C5.44162 6.2384 5.44162 6.2384 5.64309 5.94203C6.12512 5.36535 7.29375 5.28085 7.99222 5.17281C8.03447 5.16627 8.07672 5.15972 8.12025 5.15298C8.26138 5.13228 8.40262 5.1138 8.54417 5.09616C8.57369 5.09241 8.6032 5.08866 8.63361 5.0848C9.21245 5.01325 9.78632 4.99839 10.3693 5.00054ZM7.00831 12.1592C7.00806 12.1889 7.00781 12.2186 7.00755 12.2493C7.00507 12.5299 7.002 12.8106 6.99825 13.0912C6.99634 13.2354 6.99467 13.3797 6.99353 13.524C6.9922 13.69 6.98986 13.8559 6.98748 14.0219C6.9872 14.0736 6.98693 14.1252 6.98665 14.1784C6.98538 14.2508 6.98538 14.2508 6.98409 14.3246C6.98338 14.3881 6.98338 14.3881 6.98265 14.453C6.96279 14.5895 6.91855 14.67 6.83765 14.7814C6.75698 14.8297 6.75698 14.8297 6.6655 14.8612C6.63136 14.8736 6.59721 14.886 6.56203 14.8987C6.5254 14.9115 6.48877 14.9242 6.45102 14.9373C5.38179 15.3361 4.46972 15.9994 3.6806 16.8115C3.46728 17.0229 3.46728 17.0229 3.39512 17.09C3.11742 17.3536 2.88782 17.65 2.65669 17.9534C2.62978 17.9882 2.62978 17.9882 2.60234 18.0238C2.08338 18.6987 1.67675 19.4433 1.3768 20.2372C1.3571 20.2885 1.3571 20.2885 1.33701 20.3409C1.01905 21.1812 0.81866 22.088 0.813514 22.988C0.813211 23.0233 0.812908 23.0586 0.812596 23.095C0.796555 25.5152 1.46467 27.7141 2.99799 29.6264C3.02633 29.6619 3.02633 29.6619 3.05524 29.6982C3.54814 30.3104 4.11072 30.8545 4.74717 31.3182C4.79584 31.3545 4.8445 31.3908 4.89316 31.4272C5.25305 31.6925 5.63119 31.9136 6.02706 32.1217C6.07622 32.1478 6.12539 32.174 6.17605 32.2009C6.90228 32.5741 7.66623 32.8157 8.45885 33.0099C8.49668 33.0196 8.53451 33.0293 8.57348 33.0392C9.21255 33.1964 9.85746 33.1955 10.512 33.1976C10.5769 33.198 10.5769 33.198 10.6431 33.1984C11.4441 33.2015 12.2292 33.1302 13.0078 32.9359C13.0742 32.9196 13.0742 32.9196 13.142 32.903C14.1677 32.6439 15.1275 32.2359 16.0102 31.6565C16.041 31.6363 16.0719 31.616 16.1037 31.5952C16.9319 31.046 17.7179 30.3805 18.314 29.5841C18.3516 29.5349 18.3892 29.4857 18.4268 29.4364C20.0004 27.3605 20.7454 24.7496 20.3792 22.1645C20.059 20.161 19.1449 18.3354 17.7323 16.8719C17.6803 16.8179 17.6288 16.7634 17.5774 16.7089C17.3074 16.4298 17.0031 16.1983 16.6928 15.9656C16.6531 15.9354 16.6135 15.9053 16.5726 15.8742C15.9982 15.4474 15.0519 14.7814 14.3037 14.7814C14.1805 14.472 14.1558 14.2042 14.1538 13.8732C14.1527 13.7994 14.1527 13.7994 14.1515 13.7241C14.1492 13.5681 14.1478 13.4121 14.1463 13.2562C14.1449 13.1499 14.1435 13.0437 14.1419 12.9374C14.1383 12.678 14.1354 12.4186 14.133 12.1592C13.9388 12.1825 13.7445 12.2058 13.5503 12.2291C13.4843 12.2371 13.4184 12.245 13.3524 12.2529C13.2571 12.2643 13.1618 12.2758 13.0664 12.2872C13.0229 12.2924 13.0229 12.2924 12.9785 12.2978C12.8066 12.3184 12.8066 12.3184 12.6347 12.3399C11.4165 12.4947 10.1394 12.4468 8.91747 12.3574C8.8829 12.3549 8.84833 12.3525 8.8127 12.3499C8.209 12.3054 7.60887 12.2339 7.00831 12.1592Z" fill="#505242"/>
<path d="M10.8299 21.3587C11.3792 21.4852 11.9287 21.6053 12.4839 21.7034C12.522 21.7104 12.5601 21.7175 12.5994 21.7248C13.3226 21.8467 13.9481 21.7197 14.6531 21.5569C14.8327 21.5161 15.0124 21.4757 15.1922 21.4355C15.2362 21.4257 15.2802 21.4159 15.3256 21.4057C15.9692 21.2641 16.6334 21.1274 17.2943 21.115C17.3371 21.1142 17.3799 21.1134 17.424 21.1125C17.5768 21.11 17.7295 21.1085 17.8823 21.1073C17.9564 21.1065 17.9564 21.1065 18.0321 21.1057C18.6365 21.1052 18.6365 21.1052 18.8625 21.1973C19.4479 21.8672 19.3264 23.1812 19.3164 23.9925C19.3162 24.0456 19.316 24.0988 19.3158 24.1535C19.2427 26.2034 18.0946 28.1303 16.6752 29.5418C16.6425 29.5758 16.6098 29.6098 16.5761 29.6449C15.8982 30.3419 15.0803 30.8612 14.1991 31.2682C14.173 31.2807 14.1468 31.2931 14.1198 31.3059C12.2397 32.1964 9.90801 32.3095 7.94442 31.6228C7.81376 31.5751 7.68418 31.5252 7.55495 31.4738C7.52612 31.4624 7.49728 31.4511 7.46756 31.4394C5.99067 30.8511 4.64182 29.8052 3.71701 28.5141C3.69976 28.4901 3.68251 28.4661 3.66474 28.4414C2.85596 27.3019 2.31052 25.9929 2.08107 24.6149C2.06793 24.5367 2.0532 24.4588 2.03823 24.3809C1.8751 23.416 1.85153 22.061 2.34597 21.1809C2.72815 20.6822 3.75298 20.5935 4.33506 20.5153C6.52685 20.2945 8.71434 20.8715 10.8299 21.3587ZM14.7646 22.2482C14.528 22.308 14.2904 22.3625 14.0521 22.415C13.7956 22.4719 13.5405 22.5326 13.286 22.5979C12.175 22.8824 11.0478 23.1245 9.90725 23.2526C9.85433 23.2586 9.80142 23.2647 9.74691 23.271C7.56906 23.516 5.30027 23.441 3.19704 22.7844C3.04088 22.7357 2.88861 22.7 2.72657 22.6771C2.51429 23.6999 2.77796 24.8287 3.09798 25.8011C3.10722 25.8296 3.11646 25.8581 3.12597 25.8875C3.49632 27.0076 4.14123 28.0322 4.95505 28.8841C4.97612 28.9062 4.99719 28.9283 5.01889 28.9511C5.3462 29.2922 5.68299 29.5975 6.0693 29.8706C6.09207 29.8871 6.11483 29.9036 6.13829 29.9206C7.72133 31.0621 9.83181 31.5452 11.7635 31.2552C11.8188 31.2461 11.8741 31.2367 11.9294 31.2271C11.9749 31.2195 11.9749 31.2195 12.0214 31.2117C13.6814 30.9248 15.1211 30.0567 16.3038 28.8841C16.3253 28.8629 16.3467 28.8417 16.3688 28.8199C17.0828 28.1046 17.6326 27.1825 18.0059 26.2489C18.0372 26.1709 18.0697 26.0936 18.1022 26.0161C18.2302 25.7034 18.3221 25.3877 18.3982 25.0587C18.4105 25.0056 18.4105 25.0056 18.423 24.9514C18.5373 24.4296 18.5882 23.9154 18.5866 23.3827C18.5865 23.2937 18.5875 23.2048 18.5885 23.1158C18.5904 22.6888 18.5842 22.1939 18.3672 21.8138C17.1199 21.7822 15.9721 21.9422 14.7646 22.2482Z" fill="#2C531C"/>
<path d="M9.87166 5.00052C10.0213 5.00095 10.1709 5.00052 10.3205 5.00001C11.2634 4.99936 12.1937 5.05669 13.1228 5.20642C13.1565 5.21172 13.1902 5.21702 13.2249 5.22249C14.9651 5.497 14.9651 5.497 15.3178 5.87099C15.5697 6.20686 15.4404 6.66624 15.3719 7.04796C15.3641 7.09282 15.3564 7.13769 15.3484 7.18392C15.3239 7.32552 15.2988 7.46702 15.2737 7.60854C15.257 7.70465 15.2403 7.80078 15.2237 7.89691C15.1932 8.07212 15.1627 8.24733 15.1317 8.42245C15.1255 8.45739 15.1193 8.49233 15.1129 8.52833C15.0959 8.61478 15.0732 8.70026 15.05 8.7855C14.773 8.7855 14.4961 8.7855 14.2107 8.7855C14.1961 8.81228 14.1815 8.83907 14.1665 8.86667C14.1917 8.49564 14.2503 8.13415 14.3211 7.76834C14.3312 7.71489 14.3413 7.66144 14.3513 7.60798C14.4252 7.22023 14.4252 7.22023 14.4757 7.08093C14.445 7.0937 14.4143 7.10646 14.3827 7.11961C12.2094 7.95975 9.13811 7.73677 6.87741 7.34727C6.83132 7.33944 6.78523 7.3316 6.73775 7.32353C6.43342 7.26822 6.14972 7.18572 5.86135 7.08093C5.87072 7.12515 5.88009 7.16936 5.88974 7.21491C5.92457 7.37961 5.95907 7.54436 5.99347 7.70913C6.00838 7.78031 6.02338 7.85148 6.03847 7.92263C6.06019 8.02515 6.0816 8.12772 6.10294 8.23031C6.10971 8.2619 6.11647 8.29349 6.12344 8.32603C6.15833 8.49535 6.17793 8.6528 6.17059 8.82608C6.14143 8.81269 6.11227 8.7993 6.08223 8.7855C6.02147 8.78212 5.96053 8.78114 5.89966 8.78153C5.86407 8.78166 5.82848 8.78179 5.79181 8.78193C5.75462 8.78227 5.71744 8.78261 5.67913 8.78296C5.62283 8.78323 5.62283 8.78323 5.56541 8.78351C5.47262 8.78399 5.37984 8.78472 5.28706 8.7855C5.23824 8.54086 5.18954 8.2962 5.14092 8.05153C5.12441 7.96852 5.10788 7.88551 5.09131 7.80251C4.7692 6.18837 4.7692 6.18837 4.97783 5.90397C5.47696 5.35059 6.68703 5.2695 7.41028 5.16583C7.45403 5.15955 7.49778 5.15327 7.54286 5.1468C7.68899 5.12693 7.83524 5.1092 7.98181 5.09227C8.01237 5.08868 8.04293 5.08508 8.07442 5.08138C8.6738 5.01271 9.26802 4.99845 9.87166 5.00052Z" fill="#473E25"/>
<path d="M6.7666 7.90002C6.91946 7.92037 7.06601 7.94955 7.21523 7.98087C9.33354 8.40305 12.1185 8.43314 14.2223 7.95751C14.3148 7.93807 14.4073 7.91905 14.4999 7.90002C14.4401 8.24105 14.3666 8.58008 14.2798 8.91802C14.2696 8.95779 14.2597 8.99758 14.2499 9.0374C14.236 9.094 14.2212 9.15049 14.2064 9.20697C14.198 9.2397 14.1896 9.27244 14.181 9.30617C14.1382 9.40584 14.0829 9.463 13.9844 9.53842C13.7028 9.63981 13.362 9.67205 13.0549 9.71448C13.0226 9.71904 12.9904 9.7236 12.9572 9.72829C12.2315 9.82249 11.4973 9.83576 10.7622 9.83304C10.7197 9.83296 10.6773 9.83288 10.6336 9.8328C10.0029 9.83142 9.37632 9.82393 8.74951 9.76837C8.71539 9.76544 8.68127 9.76252 8.64612 9.7595C8.29937 9.72845 7.96107 9.68131 7.62421 9.61387C7.58279 9.60591 7.58279 9.60591 7.54054 9.59778C7.35098 9.55686 7.24727 9.50569 7.12352 9.3947C7.0791 9.30717 7.05762 9.21846 7.03615 9.12669C7.02949 9.10078 7.02282 9.07487 7.01595 9.04817C6.99489 8.96555 6.97494 8.88282 6.95498 8.80006C6.941 8.74498 6.92695 8.68991 6.91284 8.63484C6.85108 8.39016 6.79641 8.14799 6.7666 7.90002Z" fill="#D49A49"/>
<path d="M5.60984 8.89402C5.68716 8.98905 5.68716 8.98905 5.76376 9.11176C6.30195 9.95807 7.50869 10.0089 8.30208 10.1162C8.80999 10.1798 9.31593 10.204 9.82613 10.2071C9.87696 10.2075 9.87696 10.2075 9.92881 10.2079C10.1089 10.2091 10.2891 10.2099 10.4692 10.2105C10.6143 10.211 10.7594 10.2122 10.9045 10.2141C13.2457 10.3221 13.2457 10.3221 15.3678 9.3664C15.4247 9.28208 15.4798 9.19589 15.5333 9.10807C15.6631 8.90188 15.6631 8.90188 15.7978 8.86658C15.9909 8.88234 16.0929 8.93516 16.2478 9.08593C16.4298 9.39438 16.4576 9.61164 16.4169 9.99077C16.3613 10.2872 16.2422 10.4162 16.0526 10.578C13.5937 12.3387 8.90931 11.8392 6.26037 11.0197C6.21364 11.0056 6.21364 11.0056 6.16596 10.9911C5.25403 10.7085 5.25403 10.7085 4.97674 10.2373C4.87374 10.0112 4.82191 9.81857 4.83534 9.55623C4.89543 9.30302 5.03871 9.12543 5.19164 8.95307C5.34464 8.85586 5.44032 8.86224 5.60984 8.89402Z" fill="#D1DAE1"/>
<path d="M9.89554 22.2413C9.94836 22.2564 9.94836 22.2564 10.0022 22.2717C10.3199 22.3621 10.6371 22.4547 10.9539 22.5494C11.1688 22.6125 11.3844 22.6718 11.6 22.7312C11.5866 22.7635 11.5732 22.7959 11.5594 22.8292C11.4447 22.8642 11.4447 22.8642 11.2884 22.8961C11.2456 22.9049 11.2456 22.9049 11.202 22.9139C11.1065 22.9332 11.0109 22.9517 10.9152 22.97C10.8653 22.9796 10.8653 22.9796 10.8145 22.9894C9.13767 23.3088 7.35178 23.5411 5.66619 23.1947C5.5412 23.1697 5.41597 23.1483 5.29046 23.1273C3.36806 22.7998 3.36806 22.7998 2.91524 22.2903C2.89495 22.1403 2.89495 22.1403 2.91524 21.9964C3.17164 21.6204 3.75618 21.6197 4.13274 21.5556C4.17717 21.5477 4.17717 21.5477 4.2225 21.5396C6.15576 21.209 8.02255 21.7087 9.89554 22.2413Z" fill="#468225"/>
<path d="M11.9357 6.02336C11.9859 6.02632 11.9859 6.02632 12.0372 6.02934C12.6676 6.06748 13.2873 6.14243 13.9021 6.2649C13.9379 6.27161 13.9736 6.27833 14.0105 6.28524C14.1935 6.32121 14.3441 6.35844 14.4999 6.44973C14.4807 6.51155 14.4807 6.51155 14.4185 6.58415C14.3022 6.62011 14.1952 6.64679 14.0751 6.67026C14.0405 6.67733 14.0059 6.68441 13.9703 6.6917C12.9791 6.88811 11.9727 6.93221 10.9567 6.9308C10.7974 6.9307 10.6382 6.93149 10.4789 6.93234C7.61641 6.93817 7.61641 6.93817 6.7666 6.48333C6.78003 6.45006 6.79346 6.41679 6.8073 6.38252C6.89821 6.34898 6.98203 6.32383 7.07695 6.3006C7.10589 6.29344 7.13482 6.28628 7.16464 6.27889C8.69832 5.91699 10.3587 5.92845 11.9357 6.02336Z" fill="#D59E49"/>
<path d="M8.00043 16.7935C8.32476 17.0155 8.56376 17.2151 8.66814 17.6015C8.71166 18.0079 8.74538 18.4493 8.52398 18.8098C8.2137 19.1867 7.90543 19.4464 7.40869 19.4995C6.94328 19.5051 6.63461 19.4686 6.28362 19.1541C5.97992 18.8374 5.82786 18.4955 5.80005 18.0569C5.82044 17.6283 6.05118 17.2652 6.33848 16.9598C6.7955 16.5576 7.47251 16.4787 8.00043 16.7935Z" fill="#2B521D"/>
<path d="M12.9796 28.2821C13.231 28.4259 13.4284 28.6507 13.5166 28.9215C13.5534 29.2244 13.5426 29.4992 13.3473 29.7466C13.1017 30.0038 12.8894 30.1173 12.5273 30.1333C12.258 30.1269 12.0648 30.0693 11.8764 29.8771C11.6344 29.5805 11.5697 29.2967 11.612 28.9215C11.6914 28.6283 11.9188 28.4367 12.1622 28.2615C12.4182 28.1783 12.7304 28.174 12.9796 28.2821Z" fill="#79A72F"/>
<path d="M9.06045 13.7492C9.31141 13.856 9.46267 14.0374 9.60056 14.2641C9.69153 14.5304 9.69408 14.8342 9.57448 15.0926C9.44211 15.3156 9.25302 15.4652 9.02677 15.593C8.72887 15.6622 8.47202 15.6489 8.20285 15.5006C7.9688 15.3367 7.80188 15.1309 7.74588 14.8522C7.71153 14.5417 7.74027 14.2947 7.93135 14.0379C8.24798 13.7133 8.61674 13.6356 9.06045 13.7492Z" fill="#2A501C"/>
<path d="M15.8725 23.4728C16.1107 23.6793 16.2745 23.9214 16.3882 24.2926C16.4639 24.7594 16.4546 25.2019 16.281 25.618C16.0893 25.9185 15.8765 26.204 15.5897 26.2654C15.2631 26.2769 15.0539 26.2073 14.8045 25.8944C14.5395 25.4797 14.4945 25.1585 14.5005 24.6004C14.5344 24.1807 14.6705 23.938 14.8789 23.6579C15.1822 23.3647 15.5214 23.274 15.8725 23.4728Z" fill="#A4C539"/>
<path d="M9.02491 27.2687C9.27799 27.3937 9.4457 27.5296 9.59365 27.768C9.70056 28.0847 9.69247 28.3495 9.55416 28.6533C9.41705 28.8954 9.28694 29.0258 9.02491 29.1408C8.71053 29.1894 8.46975 29.1759 8.1797 29.0433C7.91339 28.7991 7.74971 28.5673 7.7334 28.2009C7.77292 27.8496 7.8755 27.6661 8.10861 27.4013C8.37975 27.1945 8.70013 27.2167 9.02491 27.2687Z" fill="#A4C538"/>
<path d="M6.32317 24.4184C6.5657 24.6115 6.71609 24.7771 6.76339 25.0838C6.77894 25.4609 6.74621 25.7041 6.47242 25.9948C6.20691 26.2177 5.96864 26.2707 5.61427 26.2663C5.33897 26.23 5.1552 26.0725 4.97143 25.8839C4.78514 25.5918 4.82258 25.2447 4.88049 24.9174C5.0216 24.6728 5.19355 24.4604 5.47668 24.3669C5.7805 24.3218 6.03919 24.3074 6.32317 24.4184Z" fill="#84AF31"/>
<path d="M10.3192 19.5095C10.439 19.5758 10.5197 19.6321 10.6012 19.7469C10.6476 19.9203 10.6461 20.0673 10.5821 20.2344C10.4589 20.3922 10.3357 20.4415 10.1471 20.4667C9.94883 20.4402 9.83859 20.3533 9.70978 20.1935C9.65319 20.0371 9.65244 19.9124 9.70739 19.7545C9.87573 19.5418 10.0639 19.4725 10.3192 19.5095Z" fill="#294D1C"/>
</svg>
