<svg width="22" height="33" viewBox="0 0 22 33" fill="none" xmlns="http://www.w3.org/2000/svg">
<path d="M13.2226 0.964523H8.02258V9.41452H13.2226V0.964523Z" fill="#D1DAE1"/>
<path d="M14.5226 0.964523H6.72258C6.3636 0.964523 6.07258 1.25554 6.07258 1.61452V2.26452C6.07258 2.62351 6.3636 2.91452 6.72258 2.91452H14.5226C14.8816 2.91452 15.1726 2.62351 15.1726 2.26452V1.61452C15.1726 1.25554 14.8816 0.964523 14.5226 0.964523Z" fill="#D1DAE1"/>
<path d="M8.02258 8.76453L0.222584 26.9645C0.222584 30.4312 2.38925 32.1645 6.72258 32.1645H14.5226C18.8559 32.1645 21.0226 30.4312 21.0226 26.9645L13.2226 8.76453H8.02258Z" fill="#D1DAE1"/>
<path opacity="0.7" d="M8.02258 12.6645L2.17258 26.3145C2.17258 28.9145 3.68925 30.2145 6.72258 30.2145H14.5226C17.5559 30.2145 19.0726 28.9145 19.0726 26.3145L13.2226 12.6645H8.02258Z" fill="#0C991B"/>
<path opacity="0.8" d="M9.32258 24.6895C9.86106 24.6895 10.2976 24.253 10.2976 23.7145C10.2976 23.176 9.86106 22.7395 9.32258 22.7395C8.7841 22.7395 8.34758 23.176 8.34758 23.7145C8.34758 24.253 8.7841 24.6895 9.32258 24.6895Z" fill="#90FF97"/>
<path opacity="0.8" d="M13.2226 21.1145C13.5816 21.1145 13.8726 20.8235 13.8726 20.4645C13.8726 20.1055 13.5816 19.8145 13.2226 19.8145C12.8636 19.8145 12.5726 20.1055 12.5726 20.4645C12.5726 20.8235 12.8636 21.1145 13.2226 21.1145Z" fill="#90FF97"/>
<path opacity="0.8" d="M11.2726 27.6145C11.6316 27.6145 11.9226 27.3235 11.9226 26.9645C11.9226 26.6055 11.6316 26.3145 11.2726 26.3145C10.9136 26.3145 10.6226 26.6055 10.6226 26.9645C10.6226 27.3235 10.9136 27.6145 11.2726 27.6145Z" fill="#90FF97"/>
</svg>
