<svg width="147" height="42" viewBox="0 0 147 42" fill="none" xmlns="http://www.w3.org/2000/svg">
<path d="M35.556 25.844L28.968 25.7L27.456 32.468L24.36 32L30.3 8.888L33.144 8.672L40.632 32L37.5 32.468L35.556 25.844ZM29.472 23.504L34.908 23.648L31.812 12.992L29.472 23.504ZM41.3028 8.708L41.1948 6.044L47.2428 5.756C47.0268 15.044 46.9188 20.48 46.9188 22.064L46.8468 31.964L43.9668 32.18V21.992C43.9668 18.584 43.9068 14.036 43.7868 8.348L41.3028 8.708ZM63.9234 16.268L62.3754 18.572C61.9434 18.26 61.2954 17.984 60.4314 17.744C59.5914 17.48 58.8474 17.348 58.1994 17.348C56.5674 17.348 55.3794 17.936 54.6354 19.112C53.9154 20.288 53.5554 21.728 53.5554 23.432C53.5554 25.112 53.9514 26.612 54.7434 27.932C55.5354 29.252 56.5674 29.912 57.8394 29.912C58.7994 29.912 59.7834 29.672 60.7914 29.192C61.8234 28.688 62.5794 28.112 63.0594 27.464L64.5354 29.3C63.9114 30.068 63.0114 30.74 61.8354 31.316C60.6594 31.892 59.2794 32.18 57.6954 32.18C55.3674 32.18 53.6154 31.424 52.4394 29.912C51.2634 28.4 50.6754 26.396 50.6754 23.9C50.6754 21.404 51.4194 19.268 52.9074 17.492C54.3954 15.716 56.3514 14.828 58.7754 14.828C60.3594 14.828 62.0754 15.308 63.9234 16.268ZM81.4501 20.66L81.3781 26.888L81.5581 31.964L78.2461 32.18C78.3421 27.572 78.3901 24.368 78.3901 22.568C78.3901 20.768 78.1381 19.52 77.6341 18.824C77.1541 18.104 76.4941 17.744 75.6541 17.744C74.8381 17.744 73.9741 18.176 73.0621 19.04C72.1501 19.904 71.4901 20.936 71.0821 22.136C70.6981 23.312 70.5061 25.172 70.5061 27.716C70.5061 30.26 70.5541 31.676 70.6501 31.964L67.3381 32.18C67.2421 26.06 67.1941 21.74 67.1941 19.22C67.1941 16.676 67.1221 13.1 66.9781 8.492L64.2061 8.708L64.0261 5.936L70.2541 5.684V18.86L70.5421 18.932C70.7341 18.596 71.0941 18.152 71.6221 17.6C72.1501 17.024 72.6421 16.556 73.0981 16.196C73.5541 15.812 74.1061 15.476 74.7541 15.188C75.4261 14.876 76.0741 14.72 76.6981 14.72C78.3301 14.72 79.5301 15.284 80.2981 16.412C81.0661 17.516 81.4501 18.932 81.4501 20.66ZM98.457 24.656L87.837 24.728C87.837 26.264 88.269 27.5 89.133 28.436C89.997 29.348 90.969 29.804 92.049 29.804C93.129 29.804 94.053 29.636 94.821 29.3C95.613 28.94 96.177 28.592 96.513 28.256L96.981 27.716L98.457 29.66C97.065 31.34 94.905 32.18 91.977 32.18C89.625 32.18 87.837 31.472 86.613 30.056C85.389 28.64 84.777 26.696 84.777 24.224C84.777 21.728 85.545 19.544 87.081 17.672C88.641 15.776 90.633 14.828 93.057 14.828C95.001 14.828 96.417 15.5 97.305 16.844C98.217 18.164 98.673 19.892 98.673 22.028C98.673 22.916 98.601 23.792 98.457 24.656ZM95.865 22.604C95.865 20.876 95.601 19.568 95.073 18.68C94.569 17.792 93.657 17.348 92.337 17.348C91.041 17.348 89.961 17.924 89.097 19.076C88.257 20.204 87.825 21.404 87.801 22.676L95.865 22.604ZM113.009 32.18L113.153 24.908C113.153 19.964 112.457 17.492 111.065 17.492C110.081 17.492 109.025 18.02 107.897 19.076C106.769 20.108 106.001 21.404 105.593 22.964C105.329 23.972 105.197 25.784 105.197 28.4L105.341 31.964L102.137 32.18C102.185 26.3 102.209 22.676 102.209 21.308L101.993 15.152L104.513 14.936L105.341 18.5H105.485C105.581 18.404 105.701 18.272 105.845 18.104C106.013 17.912 106.337 17.6 106.817 17.168C107.321 16.736 107.813 16.352 108.293 16.016C109.613 15.128 110.825 14.684 111.929 14.684C113.057 14.684 113.909 15.02 114.485 15.692C115.061 16.364 115.493 17.324 115.781 18.572L115.961 18.644C118.073 16.004 120.461 14.684 123.125 14.684C124.301 14.684 125.189 15.224 125.789 16.304C126.389 17.384 126.689 18.848 126.689 20.696V24.296C126.689 28.256 126.725 30.848 126.797 32.072L123.665 32.288C123.761 27.68 123.809 24.272 123.809 22.064C123.809 19.208 123.173 17.78 121.901 17.78C120.629 17.78 119.345 18.512 118.049 19.976C116.777 21.44 116.141 22.856 116.141 24.224L116.069 31.964L113.009 32.18ZM142.269 14.72L145.689 15.368C142.257 24.68 140.241 30.284 139.641 32.18C139.065 34.076 138.633 35.36 138.345 36.032C138.081 36.704 137.697 37.4 137.193 38.12C136.209 39.512 134.709 40.208 132.693 40.208C130.701 40.208 128.997 39.836 127.581 39.092L128.481 36.284C129.945 37.124 131.457 37.544 133.017 37.544C134.073 37.544 134.925 37.148 135.573 36.356C136.221 35.588 136.545 34.724 136.545 33.764C136.545 32.828 136.149 31.328 135.357 29.264L129.669 15.404L133.197 14.576L138.165 28.76L142.269 14.72Z" fill="#D1DAE1"/>
<path d="M10.7268 4.00056C10.8763 4.00103 11.0258 4.00056 11.1752 4.00001C12.1173 3.99931 13.0466 4.06112 13.9749 4.22253C14.0086 4.22824 14.0422 4.23396 14.0769 4.23985C15.8154 4.53578 15.8154 4.53578 16.1678 4.93896C16.4196 5.30135 16.2901 5.79745 16.2218 6.20931C16.214 6.25778 16.2063 6.30625 16.1983 6.3562C16.1821 6.45759 16.1657 6.55895 16.149 6.66028C16.1235 6.81573 16.0986 6.97126 16.0738 7.12682C16.0579 7.22569 16.0419 7.32456 16.0259 7.42342C16.0147 7.49315 16.0147 7.49315 16.0032 7.56428C15.9962 7.60725 15.9891 7.65022 15.9818 7.69449C15.9725 7.75114 15.9725 7.75114 15.9631 7.80893C15.9444 7.90589 15.9444 7.90589 15.9002 8.03715C15.9499 8.04282 15.9499 8.04282 16.0006 8.0486C16.4276 8.10671 16.8082 8.21354 17.081 8.56371C17.3341 8.9593 17.429 9.37395 17.3265 9.83559C17.1909 10.2756 16.9476 10.6196 16.5623 10.881C16.2258 11.0489 15.8818 11.1873 15.503 11.1873C15.503 11.9381 15.503 12.6889 15.503 13.4624C15.6997 13.5274 15.6997 13.5274 15.9002 13.5936C16.8668 13.9953 17.7262 14.582 18.4893 15.2919C18.5794 15.3754 18.6716 15.4541 18.7662 15.5324C20.7477 17.2532 21.8048 19.9325 21.9814 22.4858C22.14 25.2787 21.2834 28.0474 19.431 30.1756C19.4066 30.2039 19.3821 30.2322 19.357 30.2613C18.8861 30.8016 18.3742 31.2796 17.798 31.7069C17.7345 31.7579 17.671 31.8089 17.6077 31.8601C15.7736 33.2675 13.4192 34.0139 11.1103 33.9992C10.9793 33.9985 10.8484 33.9992 10.7174 34C8.40335 34.0025 6.00631 33.1896 4.22442 31.7086C4.1528 31.6495 4.08055 31.5911 4.00766 31.5335C3.70234 31.2914 3.42097 31.0328 3.1455 30.7581C3.12433 30.737 3.10316 30.7159 3.08135 30.6942C2.75149 30.3648 2.44218 30.0318 2.17455 29.6506C2.15333 29.6206 2.13211 29.5907 2.11025 29.5598C1.79406 29.1101 1.50381 28.6489 1.24774 28.163C1.23035 28.1305 1.21296 28.0979 1.19505 28.0643C0.663056 27.0553 0.318333 25.9618 0.144386 24.8379C0.137289 24.7926 0.130191 24.7473 0.122879 24.7007C-0.269653 22.0915 0.269584 19.3252 1.86561 17.1813C2.14357 16.8194 2.43935 16.4724 2.75002 16.1378C2.82923 16.0517 2.90461 15.9635 2.98 15.8742C3.35629 15.448 3.80426 15.0876 4.25844 14.7467C4.33636 14.688 4.41354 14.6285 4.49073 14.5688C5.07259 14.1261 5.7126 13.7869 6.36729 13.4624C6.38185 12.7116 6.39642 11.9608 6.41142 11.1873C6.30947 11.1729 6.20753 11.1584 6.10249 11.1435C5.62884 11.0324 5.20111 10.8217 4.93293 10.4052C4.71879 10.0033 4.60585 9.58378 4.72381 9.13402C4.8785 8.68671 5.11378 8.36402 5.54529 8.152C5.68604 8.08574 5.80169 8.07763 5.95519 8.07908C5.99102 8.07935 6.02685 8.07961 6.06377 8.07988C6.09111 8.08022 6.11845 8.08055 6.14662 8.0809C6.13127 7.99789 6.13127 7.99789 6.11561 7.91321C6.0772 7.70537 6.03889 7.49752 6.00062 7.28966C5.98413 7.20017 5.96761 7.11069 5.95106 7.02121C5.62926 5.28111 5.62926 5.28111 5.83768 4.97451C6.33634 4.37795 7.54525 4.29053 8.26781 4.17877C8.31152 4.172 8.35523 4.16523 8.40026 4.15825C8.54625 4.13684 8.69236 4.11772 8.8388 4.09947C8.86933 4.0956 8.89986 4.09172 8.93132 4.08773C9.53012 4.01371 10.1238 3.99833 10.7268 4.00056Z" fill="#D1DAE1"/>
<path d="M11.2032 20.9227C11.7715 21.0535 12.3399 21.1778 12.9143 21.2792C12.9537 21.2865 12.9931 21.2938 13.0337 21.3014C13.7818 21.4275 14.4289 21.2961 15.1582 21.1277C15.344 21.0855 15.5299 21.0437 15.7159 21.0022C15.7614 20.992 15.807 20.9818 15.8539 20.9713C16.5198 20.8248 17.2068 20.6833 17.8905 20.6706C17.9348 20.6697 17.9791 20.6689 18.0247 20.668C18.1828 20.6654 18.3408 20.6638 18.4988 20.6626C18.5755 20.6618 18.5755 20.6618 18.6537 20.6609C19.279 20.6604 19.279 20.6604 19.5127 20.7556C20.1183 21.4487 19.9927 22.808 19.9823 23.6472C19.9821 23.7022 19.9819 23.7572 19.9817 23.8139C19.9061 25.9345 18.7184 27.9277 17.2501 29.3879C17.2163 29.4231 17.1824 29.4583 17.1475 29.4946C16.4463 30.2157 15.6002 30.7528 14.6886 31.1739C14.6615 31.1868 14.6345 31.1996 14.6066 31.2129C12.6617 32.1341 10.2495 32.2511 8.21823 31.5407C8.08305 31.4914 7.94901 31.4397 7.81533 31.3865C7.78549 31.3748 7.75566 31.3631 7.72492 31.351C6.1971 30.7423 4.80173 29.6605 3.84504 28.3248C3.82719 28.3 3.80935 28.2751 3.79096 28.2495C2.9543 27.0708 2.39005 25.7167 2.15268 24.2912C2.1391 24.2103 2.12385 24.1296 2.10837 24.0491C1.93962 23.0509 1.91524 21.6492 2.42672 20.7387C2.82208 20.2229 3.88226 20.1311 4.48441 20.0502C6.75177 19.8217 9.0147 20.4187 11.2032 20.9227Z" fill="#458025"/>
<path d="M10.7268 4.00056C10.8763 4.00103 11.0258 4.00056 11.1752 4.00001C12.1173 3.99931 13.0466 4.06112 13.9749 4.22253C14.0086 4.22824 14.0422 4.23396 14.0769 4.23985C15.8154 4.53578 15.8154 4.53578 16.1678 4.93896C16.4196 5.30135 16.2901 5.79745 16.2218 6.20931C16.214 6.25778 16.2063 6.30625 16.1983 6.3562C16.1821 6.45759 16.1657 6.55895 16.149 6.66028C16.1235 6.81573 16.0986 6.97126 16.0738 7.12682C16.0579 7.22569 16.0419 7.32456 16.0259 7.42342C16.0147 7.49315 16.0147 7.49315 16.0032 7.56428C15.9962 7.60725 15.9891 7.65022 15.9818 7.69449C15.9725 7.75114 15.9725 7.75114 15.9631 7.80893C15.9444 7.90589 15.9444 7.90589 15.9002 8.03715C15.9499 8.04282 15.9499 8.04282 16.0006 8.0486C16.4276 8.10671 16.8082 8.21354 17.081 8.56371C17.3341 8.9593 17.429 9.37395 17.3265 9.83559C17.1909 10.2756 16.9476 10.6196 16.5623 10.881C16.2258 11.0489 15.8818 11.1873 15.503 11.1873C15.503 11.9381 15.503 12.6889 15.503 13.4624C15.6997 13.5274 15.6997 13.5274 15.9002 13.5936C16.8668 13.9953 17.7262 14.582 18.4893 15.2919C18.5794 15.3754 18.6716 15.4541 18.7662 15.5324C20.7477 17.2532 21.8048 19.9325 21.9814 22.4858C22.14 25.2787 21.2834 28.0474 19.431 30.1756C19.4066 30.2039 19.3821 30.2322 19.357 30.2613C18.8861 30.8016 18.3742 31.2796 17.798 31.7069C17.7345 31.7579 17.671 31.8089 17.6077 31.8601C15.7736 33.2675 13.4192 34.0139 11.1103 33.9992C10.9793 33.9985 10.8484 33.9992 10.7174 34C8.40335 34.0025 6.00631 33.1896 4.22442 31.7086C4.1528 31.6495 4.08055 31.5911 4.00766 31.5335C3.70234 31.2914 3.42097 31.0328 3.1455 30.7581C3.12433 30.737 3.10316 30.7159 3.08135 30.6942C2.75149 30.3648 2.44218 30.0318 2.17455 29.6506C2.15333 29.6206 2.13211 29.5907 2.11025 29.5598C1.79406 29.1101 1.50381 28.6489 1.24774 28.163C1.23035 28.1305 1.21296 28.0979 1.19505 28.0643C0.663056 27.0553 0.318333 25.9618 0.144386 24.8379C0.137289 24.7926 0.130191 24.7473 0.122879 24.7007C-0.269653 22.0915 0.269584 19.3252 1.86561 17.1813C2.14357 16.8194 2.43935 16.4724 2.75002 16.1378C2.82923 16.0517 2.90461 15.9635 2.98 15.8742C3.35629 15.448 3.80426 15.0876 4.25844 14.7467C4.33636 14.688 4.41354 14.6285 4.49073 14.5688C5.07259 14.1261 5.7126 13.7869 6.36729 13.4624C6.38185 12.7116 6.39642 11.9608 6.41142 11.1873C6.30947 11.1729 6.20752 11.1584 6.10249 11.1435C5.62884 11.0324 5.20111 10.8217 4.93293 10.4052C4.71879 10.0033 4.60585 9.58378 4.72381 9.13402C4.8785 8.68671 5.11378 8.36402 5.54529 8.152C5.68604 8.08573 5.80169 8.07763 5.95519 8.07908C5.99102 8.07935 6.02685 8.07961 6.06377 8.07988C6.09111 8.08022 6.11845 8.08055 6.14662 8.0809C6.13127 7.99789 6.13127 7.99789 6.11561 7.91321C6.0772 7.70537 6.03889 7.49752 6.00062 7.28966C5.98413 7.20017 5.96761 7.11069 5.95106 7.02121C5.62926 5.28111 5.62926 5.28111 5.83768 4.97451C6.33634 4.37795 7.54525 4.29053 8.26781 4.17877C8.31152 4.172 8.35523 4.16523 8.40026 4.15825C8.54625 4.13684 8.69236 4.11772 8.8388 4.09947C8.86933 4.0956 8.89986 4.09172 8.93132 4.08773C9.53012 4.01371 10.1238 3.99833 10.7268 4.00056ZM7.24997 11.406C7.24971 11.4368 7.24945 11.4676 7.24919 11.4993C7.24663 11.7896 7.24345 12.0799 7.23957 12.3702C7.2376 12.5194 7.23586 12.6687 7.23468 12.8179C7.23331 12.9896 7.23089 13.1613 7.22842 13.333C7.22814 13.3864 7.22786 13.4399 7.22757 13.4949C7.22626 13.5698 7.22626 13.5698 7.22492 13.6461C7.22418 13.7119 7.22418 13.7119 7.22344 13.7789C7.20289 13.9202 7.15712 14.0035 7.07344 14.1187C6.98998 14.1687 6.98998 14.1687 6.89535 14.2012C6.86002 14.214 6.8247 14.2269 6.78831 14.2401C6.75041 14.2533 6.71252 14.2664 6.67347 14.28C5.56737 14.6925 4.62384 15.3787 3.80751 16.2188C3.58684 16.4375 3.58684 16.4375 3.51219 16.5069C3.22492 16.7796 2.9874 17.0862 2.7483 17.4001C2.72047 17.4361 2.72047 17.4361 2.69207 17.4728C2.15523 18.1711 1.73457 18.9413 1.42427 19.7627C1.4039 19.8157 1.4039 19.8157 1.38311 19.8698C1.05419 20.7392 0.846889 21.6772 0.841566 22.6083C0.841253 22.6448 0.840939 22.6813 0.840616 22.719C0.824023 25.2226 1.51518 27.4973 3.10137 29.4756C3.13068 29.5123 3.13068 29.5123 3.16059 29.5498C3.67049 30.1832 4.25247 30.746 4.91087 31.2257C4.96121 31.2633 5.01155 31.3009 5.06189 31.3385C5.43419 31.6129 5.82537 31.8416 6.23489 32.057C6.28575 32.084 6.33661 32.111 6.38901 32.1388C7.14029 32.525 7.93058 32.7748 8.75053 32.9758C8.78966 32.9858 8.8288 32.9958 8.86912 33.0061C9.53023 33.1687 10.1974 33.1678 10.8745 33.1699C10.9416 33.1703 10.9416 33.1703 11.0101 33.1707C11.8387 33.1739 12.6509 33.1002 13.4563 32.8992C13.525 32.8823 13.525 32.8823 13.5951 32.8651C14.6563 32.5972 15.6491 32.1751 16.5623 31.5757C16.5942 31.5548 16.6261 31.5338 16.659 31.5123C17.5158 30.9442 18.3289 30.2557 18.9455 29.4318C18.9844 29.3809 19.0233 29.33 19.0622 29.2791C20.6901 27.1315 21.4608 24.4306 21.0819 21.7563C20.7507 19.6837 19.8051 17.7952 18.3437 16.2812C18.2899 16.2254 18.2367 16.1691 18.1835 16.1126C17.9042 15.8239 17.5894 15.5845 17.2684 15.3437C17.2274 15.3125 17.1864 15.2813 17.1441 15.2492C16.5499 14.8076 15.5709 14.1187 14.7969 14.1187C14.6695 13.7986 14.6439 13.5215 14.6419 13.1792C14.6407 13.1028 14.6407 13.1028 14.6395 13.0249C14.6371 12.8636 14.6356 12.7022 14.6342 12.5409C14.6327 12.4309 14.6312 12.321 14.6296 12.2111C14.6258 11.9428 14.6228 11.6744 14.6204 11.406C14.4194 11.4302 14.2185 11.4543 14.0175 11.4784C13.9493 11.4866 13.8811 11.4948 13.8128 11.503C13.7142 11.5148 13.6156 11.5267 13.517 11.5385C13.472 11.5439 13.472 11.5439 13.426 11.5494C13.2482 11.5708 13.2482 11.5708 13.0704 11.593C11.8102 11.7531 10.4891 11.7036 9.22497 11.6111C9.18921 11.6086 9.15344 11.606 9.11659 11.6033C8.49206 11.5573 7.87125 11.4833 7.24997 11.406Z" fill="#505242"/>
<path d="M11.2032 20.9227C11.7715 21.0535 12.3399 21.1778 12.9143 21.2792C12.9537 21.2865 12.9931 21.2938 13.0337 21.3014C13.7818 21.4275 14.4289 21.2961 15.1582 21.1277C15.344 21.0855 15.5299 21.0437 15.7159 21.0022C15.7614 20.992 15.807 20.9818 15.8539 20.9713C16.5197 20.8248 17.2068 20.6833 17.8905 20.6706C17.9348 20.6697 17.9791 20.6689 18.0247 20.668C18.1828 20.6654 18.3408 20.6638 18.4988 20.6626C18.5755 20.6618 18.5755 20.6618 18.6537 20.6609C19.279 20.6604 19.279 20.6604 19.5127 20.7556C20.1183 21.4487 19.9927 22.808 19.9823 23.6472C19.9821 23.7022 19.9819 23.7572 19.9817 23.8139C19.9061 25.9345 18.7184 27.9277 17.2501 29.3879C17.2163 29.4231 17.1824 29.4583 17.1475 29.4946C16.4463 30.2157 15.6002 30.7528 14.6886 31.1739C14.6615 31.1868 14.6345 31.1996 14.6066 31.2129C12.6617 32.1341 10.2495 32.2511 8.21823 31.5407C8.08305 31.4914 7.94901 31.4397 7.81533 31.3865C7.78549 31.3748 7.75566 31.3631 7.72492 31.351C6.1971 30.7423 4.80173 29.6605 3.84504 28.3248C3.82719 28.3 3.80935 28.2751 3.79096 28.2495C2.9543 27.0708 2.39005 25.7167 2.15268 24.2912C2.1391 24.2103 2.12385 24.1296 2.10837 24.0491C1.93962 23.0509 1.91524 21.6492 2.42672 20.7387C2.82208 20.2229 3.88226 20.1311 4.48441 20.0502C6.75177 19.8217 9.0147 20.4187 11.2032 20.9227ZM15.2735 21.8429C15.0288 21.9047 14.7831 21.961 14.5365 22.0154C14.2711 22.0743 14.0073 22.137 13.744 22.2046C12.5946 22.4989 11.4286 22.7494 10.2487 22.8818C10.194 22.8881 10.1393 22.8944 10.0829 22.9009C7.82992 23.1544 5.48289 23.0767 3.30714 22.3975C3.1456 22.3472 2.98808 22.3102 2.82045 22.2865C2.60085 23.3446 2.87361 24.5123 3.20467 25.5183C3.21422 25.5478 3.22378 25.5772 3.23362 25.6076C3.61674 26.7664 4.28388 27.8263 5.12578 28.7075C5.14757 28.7304 5.16936 28.7533 5.19181 28.7768C5.53041 29.1298 5.87881 29.4456 6.27844 29.7281C6.30199 29.7452 6.32555 29.7622 6.34981 29.7798C7.98744 30.9607 10.1707 31.4604 12.169 31.1605C12.2262 31.151 12.2834 31.1413 12.3406 31.1314C12.3877 31.1235 12.3877 31.1235 12.4358 31.1155C14.153 30.8187 15.6424 29.9206 16.8659 28.7075C16.8881 28.6856 16.9102 28.6637 16.9331 28.6411C17.6717 27.9012 18.2405 26.9473 18.6266 25.9815C18.659 25.9008 18.6926 25.8208 18.7263 25.7407C18.8587 25.4172 18.9538 25.0906 19.0325 24.7502C19.0452 24.6953 19.0452 24.6953 19.0582 24.6392C19.1764 24.0994 19.2291 23.5675 19.2274 23.0165C19.2272 22.9244 19.2283 22.8324 19.2293 22.7403C19.2313 22.2986 19.2249 21.7867 19.0004 21.3935C17.7101 21.3608 16.5227 21.5263 15.2735 21.8429Z" fill="#2C531C"/>
<path d="M10.2121 4.00054C10.3669 4.00099 10.5217 4.00054 10.6764 4.00001C11.6519 3.99934 12.6142 4.05865 13.5754 4.21354C13.6103 4.21902 13.6451 4.22451 13.681 4.23016C15.4812 4.51413 15.4812 4.51413 15.8461 4.90103C16.1067 5.24848 15.973 5.7237 15.902 6.11858C15.894 6.16499 15.886 6.21141 15.8777 6.25923C15.8524 6.40571 15.8264 6.55209 15.8004 6.69848C15.7832 6.79792 15.7659 6.89736 15.7487 6.9968C15.7172 7.17806 15.6857 7.35931 15.6535 7.54047C15.6471 7.57661 15.6407 7.61276 15.6341 7.65C15.6165 7.73943 15.5931 7.82786 15.5691 7.91603C15.2825 7.91603 14.996 7.91603 14.7008 7.91603C14.6857 7.94374 14.6706 7.97145 14.6551 8C14.6812 7.61618 14.7418 7.24223 14.815 6.8638C14.8255 6.80851 14.8359 6.75321 14.8463 6.69791C14.9227 6.29679 14.9227 6.29679 14.975 6.15269C14.9432 6.16589 14.9115 6.1791 14.8788 6.1927C12.6305 7.06181 9.4533 6.83115 7.11464 6.42821C7.06697 6.42011 7.01929 6.412 6.97017 6.40365C6.65535 6.34644 6.36187 6.26109 6.06355 6.15269C6.07324 6.19843 6.08293 6.24417 6.09292 6.29129C6.12894 6.46166 6.16464 6.63209 6.20023 6.80254C6.21565 6.87618 6.23117 6.94981 6.24677 7.02341C6.26925 7.12947 6.29139 7.23558 6.31347 7.3417C6.32047 7.37438 6.32747 7.40706 6.33468 7.44073C6.37077 7.61588 6.39105 7.77876 6.38345 7.95802C6.35329 7.94416 6.32313 7.93031 6.29205 7.91603C6.22919 7.91254 6.16615 7.91152 6.10318 7.91193C6.06636 7.91207 6.02955 7.9122 5.99161 7.91234C5.95314 7.91269 5.91467 7.91304 5.87504 7.91341C5.81681 7.91369 5.81681 7.91369 5.7574 7.91398C5.66142 7.91448 5.56544 7.91523 5.46946 7.91603C5.41896 7.66296 5.36857 7.40987 5.31828 7.15676C5.3012 7.07088 5.28409 6.98501 5.26696 6.89915C4.93374 5.22935 4.93374 5.22935 5.14956 4.93514C5.6659 4.36268 6.9177 4.27879 7.66589 4.17155C7.71115 4.16505 7.75641 4.15856 7.80304 4.15186C7.95421 4.13131 8.10551 4.11297 8.25713 4.09545C8.28875 4.09173 8.32036 4.08801 8.35293 4.08418C8.97298 4.01315 9.5877 3.9984 10.2121 4.00054Z" fill="#473E25"/>
<path d="M7 7C7.15813 7.02105 7.30973 7.05124 7.4641 7.08363C9.65546 7.52037 12.5365 7.5515 14.7128 7.05947C14.8084 7.03936 14.9042 7.01969 15 7C14.9381 7.35279 14.862 7.70351 14.7722 8.0531C14.7617 8.09424 14.7514 8.1354 14.7414 8.17659C14.727 8.23515 14.7116 8.29358 14.6963 8.35201C14.6876 8.38588 14.679 8.41974 14.67 8.45463C14.6258 8.55774 14.5686 8.61688 14.4667 8.69489C14.1754 8.79978 13.8229 8.83313 13.5051 8.87702C13.4718 8.88174 13.4384 8.88645 13.404 8.89131C12.6533 8.98875 11.8939 9.00248 11.1333 8.99968C11.0895 8.99959 11.0456 8.99951 11.0004 8.99943C10.3479 8.99799 9.69971 8.99024 9.05128 8.93277C9.01599 8.92974 8.98069 8.92672 8.94433 8.9236C8.58562 8.89147 8.23566 8.84271 7.88718 8.77295C7.84434 8.76471 7.84434 8.76471 7.80063 8.7563C7.60453 8.71397 7.49724 8.66103 7.36923 8.54622C7.32327 8.45567 7.30105 8.3639 7.27885 8.26896C7.27195 8.24216 7.26505 8.21535 7.25795 8.18774C7.23617 8.10227 7.21553 8.01669 7.19487 7.93108C7.18041 7.87409 7.16588 7.81712 7.15128 7.76016C7.08739 7.50704 7.03083 7.25652 7 7Z" fill="#D49A49"/>
<path d="M5.80337 8.02839C5.88336 8.1267 5.88336 8.1267 5.96259 8.25364C6.51935 9.12913 7.7677 9.18175 8.58844 9.29272C9.11387 9.3585 9.63725 9.38352 10.165 9.38677C10.2176 9.38715 10.2176 9.38715 10.2713 9.38753C10.4576 9.38879 10.644 9.38967 10.8303 9.39025C10.9804 9.39078 11.1305 9.39205 11.2806 9.39401C13.7025 9.50567 13.7025 9.50567 15.8978 8.51706C15.9566 8.42983 16.0137 8.34067 16.069 8.24982C16.2033 8.03652 16.2033 8.03652 16.3426 8C16.5423 8.01631 16.6479 8.07095 16.8081 8.22691C16.9964 8.546 17.0252 8.77075 16.9831 9.16296C16.9256 9.46956 16.8024 9.60303 16.6063 9.77045C14.0625 11.5919 9.21661 11.0752 6.47633 10.2274C6.42799 10.2128 6.42799 10.2128 6.37867 10.1978C5.43529 9.90547 5.43529 9.90547 5.14843 9.41803C5.04188 9.18409 4.98827 8.98482 5.00216 8.71343C5.06433 8.45149 5.21254 8.26778 5.37075 8.08948C5.52902 7.98892 5.628 7.99551 5.80337 8.02839Z" fill="#D1DAE1"/>
<path d="M10.2367 21.8357C10.2914 21.8513 10.2914 21.8513 10.3471 21.8671C10.6757 21.9606 11.0038 22.0565 11.3316 22.1544C11.5539 22.2197 11.7769 22.2811 12 22.3425C11.9861 22.3759 11.9723 22.4094 11.958 22.4438C11.8393 22.48 11.8393 22.48 11.6776 22.5131C11.6334 22.5222 11.6334 22.5222 11.5883 22.5315C11.4895 22.5515 11.3905 22.5706 11.2915 22.5895C11.24 22.5994 11.24 22.5994 11.1874 22.6096C9.45274 22.94 7.60527 23.1803 5.86155 22.8219C5.73225 22.7961 5.6027 22.774 5.47287 22.7522C3.48417 22.4134 3.48417 22.4134 3.01574 21.8864C2.99475 21.7312 2.99475 21.7312 3.01574 21.5824C3.28098 21.1934 3.88568 21.1927 4.27522 21.1263C4.32119 21.1181 4.32119 21.1181 4.36808 21.1098C6.368 20.7678 8.29917 21.2848 10.2367 21.8357Z" fill="#468225"/>
<path d="M12.3474 5.05852C12.3993 5.06157 12.3993 5.06157 12.4523 5.0647C13.1045 5.10415 13.7455 5.18169 14.3816 5.30838C14.4186 5.31533 14.4556 5.32227 14.4937 5.32943C14.683 5.36664 14.8387 5.40515 15 5.49958C14.9801 5.56354 14.9801 5.56354 14.9158 5.63864C14.7954 5.67584 14.6848 5.70344 14.5605 5.72772C14.5248 5.73504 14.489 5.74236 14.4521 5.7499C13.4267 5.95308 12.3857 5.9987 11.3346 5.99725C11.1698 5.99714 11.0051 5.99796 10.8403 5.99884C7.87912 6.00487 7.87912 6.00487 7 5.53434C7.01389 5.49993 7.02779 5.46551 7.04211 5.43005C7.13615 5.39536 7.22286 5.36934 7.32105 5.34532C7.35099 5.33791 7.38092 5.33049 7.41176 5.32286C8.99833 4.94847 10.7159 4.96033 12.3474 5.05852Z" fill="#D59E49"/>
<path d="M7.5175 16.1334C7.74118 16.2866 7.90601 16.4242 7.97799 16.6907C8.00801 16.971 8.03126 17.2754 7.87857 17.524C7.66459 17.784 7.45198 17.963 7.1094 17.9996C6.78843 18.0035 6.57556 17.9784 6.3335 17.7614C6.12405 17.543 6.01918 17.3073 6 17.0048C6.01406 16.7092 6.17319 16.4588 6.37133 16.2482C6.68652 15.9708 7.15342 15.9164 7.5175 16.1334Z" fill="#2B521D"/>
<path d="M13.4272 28.085C13.6872 28.2337 13.8914 28.4663 13.9827 28.7464C14.0208 29.0598 14.0097 29.3441 13.8075 29.5999C13.5535 29.866 13.3339 29.9834 12.9593 30C12.6807 29.9934 12.4809 29.9338 12.2859 29.735C12.0356 29.4281 11.9687 29.1346 12.0125 28.7464C12.0945 28.4431 12.3298 28.2449 12.5816 28.0637C12.8464 27.9776 13.1694 27.9732 13.4272 28.085Z" fill="#79A72F"/>
<path d="M9.37282 13.0509C9.63243 13.1614 9.7889 13.3491 9.93154 13.5836C10.0257 13.8591 10.0283 14.1734 9.90456 14.4406C9.76763 14.6713 9.57202 14.8261 9.33797 14.9583C9.0298 15.0299 8.76409 15.0162 8.48564 14.8627C8.24352 14.6931 8.07084 14.4803 8.01291 14.192C7.97738 13.8708 8.00711 13.6153 8.20477 13.3496C8.53232 13.0138 8.9138 12.9334 9.37282 13.0509Z" fill="#2A501C"/>
<path d="M16.4198 23.1098C16.6663 23.3235 16.8357 23.574 16.9533 23.9579C17.0317 24.4408 17.022 24.8986 16.8424 25.3291C16.6442 25.6399 16.4239 25.9353 16.1272 25.9988C15.7894 26.0107 15.573 25.9387 15.315 25.615C15.0409 25.186 14.9943 24.8537 15.0005 24.2764C15.0356 23.8422 15.1764 23.5912 15.392 23.3013C15.7057 22.998 16.0566 22.9043 16.4198 23.1098Z" fill="#A4C539"/>
<path d="M9.33605 27.0367C9.59785 27.1659 9.77135 27.3065 9.9244 27.5531C10.035 27.8808 10.0266 28.1548 9.88354 28.469C9.7417 28.7195 9.60712 28.8544 9.33605 28.9733C9.01083 29.0236 8.76174 29.0097 8.46169 28.8725C8.1862 28.6199 8.01688 28.38 8 28.001C8.04089 27.6376 8.147 27.4477 8.38815 27.1739C8.66864 26.9599 9.00007 26.9829 9.33605 27.0367Z" fill="#A4C538"/>
<path d="M6.5413 24.0881C6.79219 24.2878 6.94777 24.4591 6.99669 24.7764C7.01278 25.1666 6.97893 25.4181 6.69569 25.7188C6.42102 25.9494 6.17454 26.0043 5.80795 25.9997C5.52316 25.9621 5.33305 25.7992 5.14295 25.6041C4.95023 25.3019 4.98896 24.9429 5.04887 24.6043C5.19485 24.3513 5.37273 24.1316 5.66562 24.0348C5.97992 23.9881 6.24752 23.9732 6.5413 24.0881Z" fill="#84AF31"/>
<path d="M10.675 19.0098C10.7988 19.0784 10.8824 19.1367 10.9667 19.2554C11.0147 19.4348 11.0131 19.5869 10.9469 19.7597C10.8195 19.923 10.6921 19.974 10.4969 20C10.2918 19.9726 10.1778 19.8827 10.0445 19.7175C9.98597 19.5556 9.9852 19.4266 10.042 19.2633C10.2162 19.0432 10.4108 18.9715 10.675 19.0098Z" fill="#294D1C"/>
</svg>
